<svg id="Layer_1" data-name="Layer 1" xmlns="http://www.w3.org/2000/svg" viewBox="0 0 211.63 243.98"><defs><style>.cls-1{fill:none;}.cls-2{fill:#c2c2c8;}</style></defs><title>PATRON PRUEBA</title><rect class="cls-1" x="46" y="227" width="211.63" height="243.98"/><path class="cls-2" d="M211.63,243.49H182.38a6.3,6.3,0,0,0-8.64-5.08l-29.15-50.49a6,6,0,0,0,2.55-4.91v-0.06a6,6,0,0,0-2.57-4.93l29.16-50.51a6.23,6.23,0,0,0,8.65-5h29.25V121.4H182.38a6,6,0,0,0-6-5.43h-0.33a6,6,0,0,0-2.32.47L144.58,65.92A6,6,0,0,0,147.14,61v0A6,6,0,0,0,144.57,56L173.74,5.52a6,6,0,0,0,1.89.45,6,6,0,0,0,.76.05,6,6,0,0,0,6-5.58h29.25V0H170.06a6,6,0,0,0,2.59,4.91L143.48,55.44a6,6,0,0,0-8.32,5H76.46a6.1,6.1,0,0,0-8.55-4.91L38.78,5.06A6,6,0,0,0,41.55,0H0V0.43H29.1A6,6,0,0,0,34.85,6a6,6,0,0,0,.7,0,6,6,0,0,0,2.22-.43l29.15,50.5a6,6,0,0,0,0,9.83L37.75,116.39a6,6,0,0,0-2.21-.42H35.09a6,6,0,0,0-6,5.43H0v1.12H29.11A6,6,0,0,0,34.85,128a6,6,0,0,0,.7,0,6,6,0,0,0,2.22-.43l29.14,50.47A6,6,0,0,0,64.35,183v0a6,6,0,0,0,2.54,4.9L37.74,238.38a6,6,0,0,0-1.95-.41,6,6,0,0,0-6.68,5.51H0V244H41.55a6,6,0,0,0-2.8-5.07l29.12-50.43a6.14,6.14,0,0,0,8.59-5h58.69a6,6,0,0,0,8.35,5L172.65,239a6,6,0,0,0-2.59,4.94s0,0,0,0h41.57v-0.49Zm-68.14-66.07a6,6,0,0,0-8.34,5H76.46a6.1,6.1,0,0,0-8.55-4.91L38.8,127.05a6,6,0,0,0,2.76-5v0a6,6,0,0,0-2.78-5.06L67.89,66.48a6.13,6.13,0,0,0,8.57-5h58.69a6,6,0,0,0,8.34,5L172.65,117a6,6,0,0,0,0,9.87Z"/></svg>