<svg id="Layer_1" data-name="Layer 1" xmlns="http://www.w3.org/2000/svg" viewBox="0 0 320.7 605"><defs><style>.cls-1{opacity:0.3;}.cls-2{fill:#c2c2c8;}</style></defs><title>Lineas Diseño</title><g class="cls-1"><rect class="cls-2" x="6.1" y="394.08" width="313.98" height="1.51" transform="translate(-1.26 0.52) rotate(-0.18)"/><circle class="cls-2" cx="6.42" cy="395.34" r="5.67" transform="translate(-1.26 0.02) rotate(-0.18)"/><path class="cls-2" d="M6.44,401.75a6.42,6.42,0,1,1,6.4-6.44,6.43,6.43,0,0,1-6.4,6.44h0Zm0-11.33a4.91,4.91,0,1,0,4.93,4.89,4.91,4.91,0,0,0-4.93-4.89h0Z" transform="translate(0)"/><polygon class="cls-2" points="319.12 95.22 319.12 96.73 200.96 97.11 201.51 268.56 100.25 268.88 100.78 433.43 188.53 433.15 189.03 589.76 320.69 589.34 320.7 590.84 187.53 591.27 187.03 434.66 99.28 434.94 98.75 267.38 200 267.06 199.45 95.61 319.12 95.22"/><polygon class="cls-2" points="239.02 177.99 133.72 178.33 134.15 314.52 236.8 314.21 237.3 470.97 148.15 471.24 148.58 605 147.07 605 146.64 469.74 235.79 469.47 235.3 315.73 132.65 316.04 132.21 176.82 237.51 176.49 236.94 0.01 238.45 0 239.02 177.99"/><polygon class="cls-2" points="319.21 123.73 115.99 124.38 116.58 309.33 49.08 309.55 49.77 525.4 240.13 524.79 240.38 605 238.87 605 238.62 526.3 48.27 526.91 47.57 308.05 115.07 307.83 114.48 122.88 319.2 122.22 319.21 123.73"/><rect class="cls-2" x="235.2" y="266.81" width="84.47" height="1.5" transform="translate(-0.85 0.89) rotate(-0.18)"/><circle class="cls-2" cx="235.52" cy="267.7" r="5.67" transform="translate(-0.85 0.75) rotate(-0.18)"/><path class="cls-2" d="M235.54,274.12a6.42,6.42,0,1,1,6.4-6.44,6.42,6.42,0,0,1-6.4,6.44h0Zm0-11.33a4.91,4.91,0,1,0,4.93,4.9,4.92,4.92,0,0,0-4.93-4.9h0Z" transform="translate(0)"/><rect class="cls-2" x="91.91" y="207.64" width="227.57" height="1.51" transform="translate(-0.66 0.66) rotate(-0.18)"/><circle class="cls-2" cx="92.22" cy="208.76" r="5.66" transform="translate(-0.67 0.3) rotate(-0.18)"/><path class="cls-2" d="M92.25,215.17a6.42,6.42,0,1,1,6.4-6.44,6.42,6.42,0,0,1-6.4,6.44h0Zm0-11.33a4.91,4.91,0,1,0,4.93,4.9,4.92,4.92,0,0,0-4.93-4.9h0Z" transform="translate(0)"/><polygon class="cls-2" points="318.89 25.02 318.9 26.53 156.18 27.05 156.31 66.2 61.75 66.5 61.75 64.99 154.8 64.7 154.67 25.55 318.89 25.02"/><circle class="cls-2" cx="62.07" cy="65.75" r="5.66" transform="translate(-0.21 0.2) rotate(-0.18)"/><path class="cls-2" d="M62.09,72.16a6.42,6.42,0,1,1,6.4-6.44,6.43,6.43,0,0,1-6.4,6.44h0Zm0-11.33A4.91,4.91,0,1,0,67,65.73a4.92,4.92,0,0,0-4.93-4.9h0Z" transform="translate(0)"/><polygon class="cls-2" points="320.28 458.54 102.21 459.23 102.33 495.53 320.39 494.83 320.4 496.34 100.83 497.04 100.7 457.73 320.27 457.03 320.28 458.54"/><rect class="cls-2" x="94.38" y="561.35" width="226.22" height="1.51" transform="translate(-1.79 0.66) rotate(-0.18)"/><circle class="cls-2" cx="94.7" cy="562.46" r="5.67" transform="translate(-1.79 0.3) rotate(-0.18)"/><path class="cls-2" d="M94.72,568.88a6.42,6.42,0,1,1,6.4-6.44,6.43,6.43,0,0,1-6.4,6.44h0Zm0-11.33a4.91,4.91,0,1,0,4.93,4.9,4.92,4.92,0,0,0-4.93-4.9h0Z" transform="translate(0)"/></g></svg>