<?xml version="1.0" encoding="utf-8"?>
<!-- Generator: Adobe Illustrator 16.0.0, SVG Export Plug-In . SVG Version: 6.00 Build 0)  -->
<!DOCTYPE svg PUBLIC "-//W3C//DTD SVG 1.1//EN" "http://www.w3.org/Graphics/SVG/1.1/DTD/svg11.dtd">
<svg version="1.1" id="Layer_1" xmlns="http://www.w3.org/2000/svg" xmlns:xlink="http://www.w3.org/1999/xlink" x="0px" y="0px"
	 width="792px" height="612px" viewBox="-90 90 792 612" enable-background="new -90 90 792 612" xml:space="preserve">
<title>Lineas Diseño</title>
<g>
	<rect x="-20.397" y="398.572" transform="matrix(-0.0031 -1 1 -0.0031 -213.8585 585.9327)" width="411.028" height="1.977"/>
	<circle cx="184.467" cy="194.468" r="7.423"/>
	<path d="M176.072,194.518c-0.014-4.642,3.737-8.416,8.379-8.431s8.416,3.736,8.431,8.378c0.014,4.642-3.737,8.416-8.379,8.431
		C179.864,202.903,176.095,199.156,176.072,194.518L176.072,194.518z M190.904,194.518c-0.014-3.55-2.903-6.416-6.453-6.401
		s-6.416,2.904-6.401,6.454s2.903,6.415,6.453,6.401C188.053,200.957,190.919,198.067,190.904,194.518L190.904,194.518
		L190.904,194.518z"/>
	<polygon points="577.349,603.845 575.372,603.845 574.874,449.162 350.431,449.882 350.012,317.323 134.601,318.018 
		134.967,432.891 -70.05,433.545 -69.5,605.899 -71.463,605.913 -72.026,431.581 132.99,430.927 132.624,316.054 351.976,315.359 
		352.395,447.905 576.838,447.186 	"/>
	<polygon points="468.995,498.986 468.55,361.139 290.265,361.702 290.671,496.08 85.457,496.734 85.104,380.029 -90,380.592 
		-90,378.615 87.067,378.052 87.421,494.758 288.681,494.116 288.275,359.738 470.526,359.162 470.959,497.01 701.987,496.264 
		702,498.24 	"/>
	<polygon points="540.026,603.962 539.176,337.929 297.059,338.701 296.771,250.337 14.203,251.24 15.002,500.439 -90,500.767 
		-90,498.79 13.025,498.463 12.227,249.277 298.734,248.36 299.022,336.725 541.139,335.952 542.003,603.949 	"/>
	<rect x="296.428" y="548.279" transform="matrix(-0.0031 -1 1 -0.0031 -196.4349 902.7031)" width="110.579" height="1.964"/>
	<circle cx="351.545" cy="494.391" r="7.422"/>
	<path d="M343.152,494.431c-0.015-4.642,3.736-8.416,8.378-8.431s8.416,3.736,8.431,8.378s-3.736,8.416-8.378,8.431
		S343.167,499.072,343.152,494.431L343.152,494.431L343.152,494.431z M357.984,494.431c-0.015-3.55-2.904-6.416-6.454-6.401
		s-6.416,2.903-6.401,6.453c0.015,3.545,2.896,6.409,6.44,6.402C355.122,500.87,357.991,497.982,357.984,494.431L357.984,494.431z"
		/>
	<rect x="280.22" y="454.364" transform="matrix(-0.0031 -1 1 -0.0031 -24.8262 885.9557)" width="297.911" height="1.977"/>
	<circle cx="428.702" cy="306.792" r="7.409"/>
	<path d="M420.323,306.851c-0.015-4.642,3.736-8.416,8.378-8.431c4.642-0.014,8.416,3.737,8.431,8.379s-3.736,8.416-8.378,8.43
		C424.112,315.243,420.338,311.492,420.323,306.851L420.323,306.851L420.323,306.851z M435.155,306.851
		c-0.015-3.55-2.904-6.417-6.454-6.402s-6.416,2.904-6.401,6.454c0.015,3.545,2.896,6.408,6.44,6.401
		C432.293,313.29,435.162,310.403,435.155,306.851L435.155,306.851z"/>
	<polygon points="669.247,603.543 667.271,603.557 666.589,390.541 615.339,390.711 614.945,266.924 616.923,266.924 
		617.302,388.734 668.553,388.564 	"/>
	<circle cx="615.921" cy="267.337" r="7.41"/>
	<path d="M607.536,267.368c-0.015-4.642,3.736-8.416,8.378-8.43c4.642-0.015,8.416,3.736,8.431,8.378s-3.736,8.416-8.378,8.431
		C611.328,275.754,607.558,272.007,607.536,267.368L607.536,267.368z M622.368,267.368c0-3.55-2.878-6.428-6.428-6.428
		s-6.428,2.878-6.428,6.428s2.878,6.428,6.428,6.428c0.005,0,0.009,0,0.014,0c3.552-0.015,6.421-2.901,6.414-6.453l0,0V267.368z"/>
	<polygon points="101.729,605.363 100.826,319.89 53.307,320.046 54.223,605.507 52.246,605.52 51.329,318.083 102.79,317.912 
		103.706,605.35 	"/>
	<rect x="-181.925" y="456.689" transform="matrix(-0.0031 -1 1 -0.0031 -491.6348 425.2607)" width="296.143" height="1.977"/>
	<circle cx="-34.311" cy="310.027" r="7.422"/>
	<path d="M-42.716,310.084c-0.015-4.642,3.737-8.416,8.378-8.431c4.643-0.014,8.416,3.737,8.431,8.379s-3.736,8.416-8.378,8.43
		C-38.924,318.47-42.694,314.723-42.716,310.084L-42.716,310.084z M-27.884,310.084c-0.015-3.55-2.903-6.416-6.454-6.401
		c-3.549,0.015-6.415,2.904-6.4,6.454c0.014,3.545,2.896,6.408,6.44,6.401C-30.746,316.523-27.876,313.636-27.884,310.084
		L-27.884,310.084z"/>
</g>
</svg>
