<?xml version="1.0" encoding="utf-8"?>
<!-- Generator: Adobe Illustrator 16.0.0, SVG Export Plug-In . SVG Version: 6.00 Build 0)  -->
<!DOCTYPE svg PUBLIC "-//W3C//DTD SVG 1.1//EN" "http://www.w3.org/Graphics/SVG/1.1/DTD/svg11.dtd">
<svg version="1.1" xmlns="http://www.w3.org/2000/svg" xmlns:xlink="http://www.w3.org/1999/xlink" x="0px" y="0px" width="600px"
	 height="600px" viewBox="0 0 600 600" enable-background="new 0 0 600 600" xml:space="preserve">
<g id="stylus" display="none">
	<g display="inline">
		<path fill="#333333" d="M108.81,394.279c14.337-17.147,16.024-34.859,4.919-67.751c-7.028-20.804-18.695-36.827-10.121-49.76
			c9.136-13.775,28.535-0.421,12.37,17.992l3.233,2.25c19.397,2.248,28.956-24.319,14.478-31.909
			c-38.232-19.96-71.687,18.414-56.928,62.833c6.325,18.834,15.181,38.795,8.012,54.678c-6.185,13.635-18.132,21.647-26.145,21.929
			c-16.727,0.843-5.623-37.53,13.635-47.089c1.686-0.844,4.076-1.968,1.827-4.779c-23.755-2.671-37.67,8.294-45.683,23.614
			C5.073,420.846,72.685,437.292,108.81,394.279z"/>
		<path fill="#333333" d="M526.281,263.275c5.482,13.493,13.776,26.847,8.856,38.654c-4.077,10.12-9.417,14.337-15.322,15.321
			c-8.294,1.405-6.042-24.599,8.154-32.33c1.266-0.703,3.091-4.075,1.405-6.044c-17.993-0.984-28.112,7.591-33.595,18.977
			c-15.885,33.313,35.983,42.45,61.425,9.699c10.122-13.073,10.542-26.004,0.846-49.479c-6.186-14.9-15.605-26.004-9.7-35.844
			c6.326-10.402,21.505-1.406,10.12,12.509l2.531,1.406c14.759,0.844,20.802-18.835,9.557-23.754
			C540.9,199.74,513.21,231.648,526.281,263.275z"/>
		<path fill="#333333" d="M338.489,227.711c-10.26-8.152-39.076,5.483-47.228,25.724c-10.263,25.723-25.443,63.254-40.342,79.698
			c-15.743,17.291-17.29,3.938-15.743-6.044c3.655-23.474,26.566-77.871,39.076-93.193c-4.638-6.888-35-5.904-56.084,26.847
			c-7.872,12.371-25.864,53.556-45.824,86.024c-4.357,7.028-9.84,2.108-5.623-14.337c4.779-18.977,18.836-71.125,36.968-112.169
			c47.51-9.418,97.974-16.023,136.628-16.165c5.2-1.406,8.714-6.044,0-6.325c-33.315-1.125-83.354,2.811-130.162,8.715
			c8.996-17.992,18.694-32.33,28.534-38.374c-10.683-6.747-32.33-4.077-44.699,14.196c-5.482,8.152-10.964,17.992-16.165,28.675
			c-34.298,5.341-63.676,11.385-78.576,17.008c-15.462,5.904-13.775,24.599-4.357,21.084c19.539-7.31,45.964-14.899,75.341-21.646
			c-18.694,42.169-33.313,91.928-36.827,112.169c-8.715,49.197,21.788,48.916,36.688,29.519c16.165-21.226,49.9-95.864,55.1-103.735
			c1.546-2.671,3.655-1.266,2.531,1.124c-37.671,75.201-34.438,104.298-3.936,97.831c13.775-2.951,37.53-26.565,43.715-38.794
			c1.265-2.953,3.935-2.672,3.373-1.406c-23.896,61.988-54.257,112.169-74.639,127.913c-18.554,14.196-32.33-16.587,33.314-60.724
			c9.699-6.607,5.201-15.603-5.763-12.511l0,0c-33.876,5.342-130.865,36.125-173.455,65.643c-3.233,2.25-6.185,4.077-6.044,8.716
			c0.14,2.671,4.779,1.687,7.028,0.281c55.1-33.032,100.221-45.965,151.948-56.788c0.703,0.281,1.546,0.421,2.249,0.142
			c2.39-0.563,2.249,0.702,0.703,1.686c-3.514,1.969-7.028,3.795-7.872,4.077c-34.859,13.635-55.944,43.714-48.494,59.036
			c6.325,13.214,40.482,8.434,56.647-0.281c39.638-21.506,68.454-63.675,88.132-121.869
			C311.782,287.874,333.43,229.398,338.489,227.711z"/>
		<path fill="#333333" d="M568.873,346.769c-64.52-8.434-203.677,2.812-265.102,19.118c-18.275,4.778-13.213,14.478-3.937,12.65
			c0.141,0,4.077-0.984,4.216-0.984c50.463-9.839,172.893-18.414,244.3-4.779C556.925,374.32,582.649,348.596,568.873,346.769z"/>
		<path fill="#333333" d="M356.482,339.18c17.99-8.997,44.697-64.659,62.268-95.162c1.266-2.25,3.515-0.421,2.251,1.125
			c-44.42,76.467-25.584,85.322-8.014,84.198c23.476-1.405,45.12-35.141,49.9-42.731c1.968-2.952,3.094-0.563,1.968,1.545
			c-1.125,3.515-5.199,9.7-8.996,18.134c-5.34,11.948,0.282,16.586,4.92,18.694c7.311,3.515,27.27,1.266,30.36-10.964
			c-19.958-0.421,27.833-94.598,32.753-100.362c-13.354-7.731-34.016,0.703-43.435,19.257
			c-20.099,39.779-36.967,71.829-47.509,72.39c-20.524,1.124,23.613-88.695,30.781-91.506c-4.357-6.326-32.33-3.656-47.932,20.521
			c-5.622,8.715-39.921,69.438-48.354,79.418c-14.899,17.712-16.021,2.53-11.805-15.181c1.405-6.044,3.794-13.774,6.885-22.35
			c9.84-22.209,20.382-29.237,26.851-36.405c43.432-48.213,68.313-87.291,58.474-102.611c-8.717-13.635-37.813-7.591-56.509,20.521
			c-34.438,51.587-66.204,122.29-70.281,154.62C317.125,344.66,340.598,347.051,356.482,339.18z M374.756,244.579
			c1.545-3.514,2.528-4.497,5.199-10.401l0,0c15.462-34.017,34.861-69.86,48.215-86.587c8.293-8.714,19.958,3.092-1.126,35.422
			c-12.368,19.118-26.424,36.688-41.746,52.15c0,0,0,0,0,0.14c-3.938,4.357-7.451,8.012-8.997,10.121
			C375.176,246.829,373.913,246.548,374.756,244.579z"/>
	</g>
</g>
<g id="sass" display="none">
	<path display="inline" fill="#CD6799" d="M505.649,331.975c-19.869,0.104-37.139,4.89-51.599,11.964
		c-5.306-10.508-10.611-19.87-11.547-26.735c-1.041-8.011-2.289-12.9-1.041-22.471c1.249-9.57,6.866-23.198,6.763-24.239
		c-0.104-1.04-1.249-5.93-12.691-6.034c-11.444-0.104-21.326,2.185-22.471,5.202s-3.329,9.883-4.785,16.957
		c-1.977,10.402-22.887,47.542-34.85,66.996c-3.85-7.595-7.178-14.252-7.907-19.558c-1.039-8.011-2.288-12.899-1.039-22.471
		c1.247-9.57,6.865-23.199,6.762-24.239c-0.104-1.041-1.249-5.93-12.692-6.034c-11.442-0.104-21.326,2.185-22.47,5.202
		c-1.145,3.017-2.394,10.09-4.786,16.958c-2.393,6.865-30.168,68.866-37.45,84.887c-3.745,8.219-6.97,14.772-9.258,19.246l0,0
		c0,0-0.104,0.312-0.416,0.832c-1.977,3.849-3.121,5.93-3.121,5.93s0,0,0,0.104c-1.56,2.809-3.225,5.41-4.057,5.41
		c-0.624,0-1.769-7.49,0.208-17.686c4.161-21.534,14.044-55.031,13.94-56.176c0-0.624,1.872-6.449-6.45-9.466
		c-8.114-3.017-11.027,1.977-11.755,1.977s-1.249,1.769-1.249,1.769s9.051-37.659-17.269-37.659
		c-16.437,0-39.115,17.997-50.35,34.226c-7.074,3.85-22.158,12.067-38.283,20.91c-6.138,3.433-12.483,6.866-18.413,10.09
		c-0.416-0.415-0.833-0.936-1.249-1.352c-31.833-34.018-90.713-58.048-88.217-103.717c0.937-16.645,6.658-60.337,113.08-113.392
		c87.593-43.172,157.292-31.208,169.36-4.681c17.269,37.866-37.348,108.19-127.853,118.385c-34.538,3.849-52.639-9.467-57.216-14.46
		c-4.786-5.201-5.514-5.514-7.282-4.473c-2.913,1.561-1.04,6.242,0,8.947c2.705,7.074,13.836,19.558,32.665,25.695
		c16.645,5.41,57.112,8.426,106.11-10.507c54.823-21.222,97.683-80.207,85.096-129.621C359.28,88.546,276.057,72.006,197.307,99.99
		c-46.813,16.645-97.58,42.859-134.094,76.981c-43.38,40.571-50.246,75.837-47.438,90.609
		c10.091,52.431,82.391,86.552,111.312,111.832c-1.457,0.832-2.809,1.561-3.953,2.185c-14.46,7.178-69.596,35.994-83.327,66.476
		c-15.605,34.537,2.497,59.296,14.459,62.625c37.139,10.299,75.317-8.219,95.811-38.803c20.494-30.585,17.997-70.324,8.531-88.529
		c-0.104-0.208-0.208-0.416-0.417-0.624c3.745-2.185,7.594-4.474,11.339-6.658c7.386-4.369,14.668-8.427,20.91-11.755
		c-3.537,9.675-6.138,21.222-7.386,37.866c-1.56,19.558,6.45,44.94,16.957,54.928c4.682,4.369,10.195,4.474,13.732,4.474
		c12.275,0,17.789-10.195,23.927-22.263c7.49-14.771,14.252-31.937,14.252-31.937s-8.427,46.396,14.46,46.396
		c8.322,0,16.749-10.819,20.494-16.332c0,0.104,0,0.104,0,0.104s0.208-0.312,0.624-1.04c0.832-1.353,1.353-2.185,1.353-2.185
		s0-0.104,0-0.208c3.329-5.826,10.819-19.038,21.95-40.988c14.356-28.295,28.192-63.665,28.192-63.665s1.248,8.635,5.514,22.99
		c2.496,8.426,7.697,17.685,11.858,26.632c-3.329,4.681-5.409,7.281-5.409,7.281s0,0,0.104,0.104
		c-2.705,3.537-5.618,7.386-8.843,11.131c-11.34,13.523-24.863,29.024-26.735,33.498c-2.185,5.305-1.665,9.154,2.496,12.274
		c3.018,2.29,8.427,2.602,13.94,2.29c10.194-0.729,17.373-3.226,20.909-4.786c5.514-1.977,11.964-4.993,17.998-9.467
		c11.131-8.218,17.893-19.974,17.269-35.475c-0.313-8.53-3.121-17.06-6.554-25.07c1.04-1.456,1.977-2.913,3.017-4.369
		c17.581-25.695,31.209-53.887,31.209-53.887s1.248,8.634,5.513,22.989c2.081,7.283,6.347,15.189,10.092,22.887
		c-16.541,13.42-26.736,29.025-30.377,39.22c-6.554,18.933-1.456,27.464,8.218,29.44c4.369,0.936,10.611-1.146,15.189-3.122
		c5.825-1.871,12.69-5.097,19.244-9.882c11.132-8.219,21.847-19.661,21.223-35.162c-0.313-7.074-2.185-14.044-4.785-20.806
		c14.043-5.826,32.145-9.051,55.239-6.346c49.518,5.825,59.297,36.722,57.424,49.726s-12.275,20.077-15.708,22.262
		c-3.434,2.185-4.577,2.914-4.266,4.474c0.416,2.289,2.081,2.185,4.993,1.769c4.058-0.728,26.008-10.507,26.944-34.434
		C586.272,365.057,557.144,331.663,505.649,331.975z M123.654,460.763c-16.437,17.894-39.323,24.655-49.206,18.934
		c-10.611-6.138-6.45-32.562,13.732-51.494c12.275-11.548,28.088-22.263,38.594-28.816c2.393-1.456,5.93-3.537,10.195-6.138
		c0.728-0.416,1.144-0.624,1.144-0.624l0,0c0.833-0.52,1.665-1.041,2.497-1.561C147.997,418.111,140.923,441.934,123.654,460.763z
		 M243.288,379.412c-5.721,13.939-17.685,49.622-24.967,47.646c-6.242-1.664-10.091-28.712-1.249-55.447
		c4.474-13.42,13.94-29.44,19.454-35.682c8.946-9.987,18.829-13.316,21.222-9.26C260.765,331.975,246.825,370.674,243.288,379.412z
		 M342.012,426.642c-2.393,1.248-4.682,2.081-5.722,1.456c-0.729-0.416,1.04-2.081,1.04-2.081s12.38-13.315,17.269-19.349
		c2.81-3.537,6.138-7.698,9.676-12.379c0,0.416,0,0.936,0,1.352C364.274,411.558,348.878,422.272,342.012,426.642z M418.161,409.269
		c-1.769-1.248-1.457-5.409,4.474-18.413c2.288-5.098,7.697-13.628,16.956-21.846c1.04,3.328,1.769,6.554,1.664,9.57
		C441.151,398.658,426.796,406.147,418.161,409.269z"/>
</g>
<g id="css">
	<g id="Page_1">
		<g id="Layer_1_1_">
			<path id="Shape" fill="#131313" d="M416.92,30.606h-34.213l35.58,38.607v18.377H345V66.075h35.574L345,27.466V9.062h71.92V30.606
				L416.92,30.606z M330.475,30.606h-34.214l35.58,38.607v18.377h-73.287V66.075h35.577l-35.577-38.609V9.062h71.921V30.606
				L330.475,30.606z M244.875,31.48h-36.918v33.694h36.918v22.417h-63.158V9.062h63.158V31.48L244.875,31.48z"/>
			<path id="Shape_1_" fill="#1572B6" d="M131.408,544.206L93.892,123.441h412.216l-37.551,420.697l-168.81,46.799L131.408,544.206z
				"/>
			<path id="Shape_2_" fill="#33A9DC" d="M300.003,555.169l136.402-37.818l32.092-359.504H300.003V555.169z"/>
			<g id="Group" transform="translate(55.000000, 142.000000)">
				<path id="Shape_3_" fill="#FFFFFF" d="M245.001,168.289h68.288l4.715-52.846h-73.003V63.836h0.179h129.224l-1.237,13.846
					l-12.683,142.209H245.001V168.289z"/>
				<path id="Shape_4_" fill="#EBEBEB" d="M245.311,302.308l-0.226,0.064l-57.474-15.52l-3.676-41.156h-27.925h-23.876l7.229,81.026
					l105.709,29.346l0.238-0.068V302.308z"/>
				<path id="Shape_5_" fill="#FFFFFF" d="M308.902,217.707l-6.215,69.11l-57.556,15.537v53.687l105.794-29.318l0.774-8.719
					l8.978-100.297H308.902z"/>
				<path id="Shape_6_" fill="#EBEBEB" d="M245.18,63.836v32.051v19.428v0.127H120.694h-0.166l-1.035-11.599l-2.351-26.162
					l-1.234-13.846H245.18z"/>
				<path id="Shape_7_" fill="#EBEBEB" d="M245.001,168.294v32.052v19.426v0.128h-56.58h-0.166l-1.034-11.599l-2.354-26.162
					l-1.233-13.845H245.001z"/>
			</g>
		</g>
	</g>
</g>
<g id="html" display="none">
	<g display="inline">
		<polygon fill="#E44D26" points="174.464,481.824 146.531,168.521 453.469,168.521 425.506,481.774 299.813,516.621 		"/>
		<polygon fill="#F16529" points="300,489.986 401.566,461.827 425.462,194.138 300,194.138 		"/>
		<polygon fill="#EBEBEB" points="300,310.338 249.153,310.338 245.641,270.99 300,270.99 300,232.564 299.867,232.564 
			203.647,232.564 204.567,242.873 214.012,348.763 300,348.763 		"/>
		<polygon fill="#EBEBEB" points="300,410.132 299.831,410.178 257.037,398.622 254.301,367.977 233.506,367.977 215.728,367.977 
			221.112,428.31 299.823,450.16 300,450.11 		"/>
		<path d="M175.089,83.379h19.527v19.292h17.863V83.379h19.527v58.424H212.48v-19.564h-17.863v19.564H175.09V83.379H175.089z"/>
		<path d="M257.686,102.753h-17.191V83.379h53.918v19.374h-17.198v39.05h-19.528L257.686,102.753L257.686,102.753z"/>
		<path d="M302.971,83.379h20.362l12.524,20.528l12.513-20.528h20.37v58.424h-19.448v-28.959l-13.435,20.773h-0.337l-13.443-20.773
			v28.959h-19.106V83.379z"/>
		<path d="M378.457,83.379h19.534v39.112h27.461v19.312h-46.995V83.379z"/>
		<polygon fill="#FFFFFF" points="299.867,310.338 299.867,348.763 347.184,348.763 342.724,398.597 299.867,410.164 
			299.867,450.141 378.642,428.31 379.22,421.817 388.249,320.655 389.186,310.338 378.832,310.338 		"/>
		<polygon fill="#FFFFFF" points="299.867,232.564 299.867,256.43 299.867,270.896 299.867,270.99 392.559,270.99 392.559,270.99 
			392.683,270.99 393.453,262.353 395.204,242.873 396.123,232.564 		"/>
	</g>
</g>
<g id="marionette" display="none">
	<g display="inline">
		<g>
			<g id="Group_1_" transform="translate(13) translate(.344)">
				<path id="Shape_20_" fill="#939598" d="M313.762,282.577l34.559-81.74c0.408-0.982,1.553-1.447,2.545-1.036
					c0.987,0.409,1.458,1.54,1.044,2.523l-30.457,72.024L313.762,282.577L313.762,282.577z"/>
				<path id="Shape_19_" fill="#931A2B" d="M343.574,240.979c0,0-16.537,21.673-28.211,34.198
					c-11.682,12.524-28.707,32.274-28.707,32.274v44.153c0.122-0.008,0.236-0.03,0.359-0.03c2.825,0,5.11,2.259,5.11,5.052
					c0,2.795-2.289,5.06-5.11,5.06c-0.123,0-0.237-0.029-0.359-0.038v44.546c0,0,21.438-14.566,36.97-28.661
					c17.51-15.893,36.971-40.706,36.971-40.706l-17.022-95.844V240.979z"/>
				<path id="Shape_18_" fill="#A7A9AC" d="M274.518,160.185l-0.16,17.214l-62.473,25.023l1.099-15.294l61.536-26.947
					L274.518,160.185z"/>
				<path id="Shape_17_" fill="#BCBEC0" d="M361.308,186.526l1.218,15.289l-62.788-24.521l-0.297-17.207L361.308,186.526
					L361.308,186.526z M286.954,154.744l0.064,17.581l-91.387-35.694l1.896-20.116L286.954,154.744z M197.528,116.515l-1.896,20.116
					l-12.119,7.152l2.095-19.642L197.528,116.515z"/>
				<path id="Shape_16_" fill="#A7A9AC" d="M375.972,115.765l2.047,20.105l-91.001,36.455l-0.068-17.584L375.972,115.765
					L375.972,115.765z"/>
				<path id="Shape_15_" fill="#BCBEC0" d="M387.984,123.295l2.247,19.628l-12.211-7.053l-2.046-20.103L387.984,123.295
					L387.984,123.295z"/>
				<path id="Shape_14_" fill="#808285" d="M224.323,205.939l-12.44-3.515l62.475-25.023l-90.846-33.617l12.119-7.154l91.387,35.694
					l91.002-36.455l12.211,7.053l-90.493,34.373l62.788,24.52l-12.411,3.617l-63.039-23.326l-62.752,23.828V205.939z"/>
				<path id="Shape_13_" fill="#939598" d="M184.499,256.426c-0.065,0-0.131,0-0.195-0.008c-1.068-0.107-1.849-1.045-1.743-2.108
					l11.137-111.123c0.106-1.052,1.036-1.831,2.127-1.724c1.068,0.102,1.85,1.047,1.744,2.103l-11.134,111.123
					c-0.102,0.995-0.941,1.738-1.931,1.738H184.499z M384.746,256.426c-1.017,0-1.877-0.79-1.938-1.81l-6.731-111.885
					c-0.067-1.064,0.752-1.979,1.824-2.042c1.099-0.072,1.997,0.744,2.063,1.808l6.726,111.879c0.067,1.064-0.749,1.977-1.821,2.041
					C384.827,256.426,384.786,256.426,384.746,256.426L384.746,256.426z M254.749,278.789l-32.216-75.951
					c-0.416-0.982,0.051-2.116,1.037-2.528c0.995-0.409,2.134,0.054,2.55,1.034l35.758,84.297L254.749,278.789L254.749,278.789z"/>
				<path id="Shape_8_" fill="#A81E2C" d="M281.911,356.628c0-2.67,2.096-4.836,4.747-5.022v-44.153
					c0,0-17.027-19.751-28.704-32.276s-28.217-34.198-28.217-34.198l-17.023,95.856c0,0,19.458,24.812,36.967,40.702
					c15.529,14.093,36.973,28.659,36.973,28.659v-44.55C284.01,361.464,281.911,359.294,281.911,356.628L281.911,356.628z"/>
				<path id="Shape_9_" fill="#939598" d="M287.015,359.517c-0.47,0-0.951-0.168-1.321-0.511l-67.051-61.643l-0.021-5.274
					l68.381,62.854l67.511-63.604l0.272,5.058l-66.431,62.585c-0.378,0.359-0.861,0.535-1.345,0.535H287.015L287.015,359.517z"/>
				<path id="Shape_10_" fill="#CE2227" d="M427.256,254.464l-83.68-13.484c0,0,7.785,44.313,7.785,118.489
					c0,74.185-10.217,124.758-10.217,124.758l84.651-9.154c0,0,10.697-40.47,10.697-110.311c-0.004-69.839-9.241-110.3-9.241-110.3
					L427.256,254.464z M388.575,450.028c-2.284,0-4.137-1.829-4.137-4.093c0-2.254,1.851-4.093,4.137-4.093
					c2.285,0,4.132,1.839,4.132,4.093C392.707,448.195,390.86,450.028,388.575,450.028z M221.954,359.468
					c0-74.177,7.783-118.489,7.783-118.489l-83.676,13.484c0,0-9.243,40.463-9.243,110.303c0,69.848,10.701,110.312,10.701,110.312
					l84.65,9.158C232.17,484.228,221.954,433.654,221.954,359.468L221.954,359.468z M183.185,449.76
					c-2.128,0-3.858-1.713-3.858-3.821c0-2.109,1.726-3.818,3.856-3.818c2.127,0,3.854,1.709,3.854,3.815
					c0,2.104-1.725,3.816-3.854,3.816L183.185,449.76z"/>
				<ellipse id="Oval" fill="#A51724" cx="388.575" cy="278.79" rx="3.824" ry="3.785"/>
				<path id="Shape_11_" fill="#939598" d="M388.579,447.864c-0.151,0-0.304-0.022-0.455-0.06c-1.046-0.242-1.691-1.274-1.442-2.32
					c0.057-0.236,5.782-24.857,5.782-81.874c0-57.131-5.737-84.154-5.79-84.414c-0.226-1.045,0.442-2.068,1.489-2.294
					c1.044-0.223,2.092,0.439,2.313,1.481c0.058,0.266,5.88,27.693,5.88,85.227c0,57.563-5.651,81.762-5.888,82.764
					c-0.213,0.898-1.013,1.492-1.893,1.492v-0.002H388.579z"/>
				<ellipse fill="#A51724" cx="183.185" cy="278.79" rx="4.485" ry="4.441"/>
				<path id="Shape_12_" fill="#939598" d="M183.181,447.864c-0.947,0-1.776-0.69-1.923-1.645
					c-0.046-0.321-4.886-32.762-4.886-83.615s4.84-83.768,4.886-84.096c0.159-1.053,1.146-1.778,2.209-1.622
					c1.063,0.153,1.801,1.137,1.643,2.186c-0.051,0.328-4.845,32.983-4.845,83.536c0,50.571,4.799,82.731,4.843,83.04
					c0.165,1.044-0.572,2.038-1.636,2.193C183.373,447.851,183.275,447.864,183.181,447.864z"/>
			</g>
		</g>
	</g>
</g>
<g id="node" display="none">
	<g display="inline">
		<defs>
			<rect id="SVGID_1_" width="600" height="600"/>
		</defs>
		<clipPath id="SVGID_2_">
			<use xlink:href="#SVGID_1_"  overflow="visible"/>
		</clipPath>
		<path clip-path="url(#SVGID_2_)" fill="#699F63" d="M296.953,434.944c-1.46,0-2.912-0.381-4.19-1.121l-13.338-7.892
			c-1.991-1.114-1.019-1.509-0.362-1.738c2.657-0.922,3.195-1.135,6.031-2.743c0.295-0.167,0.687-0.103,0.992,0.076l10.247,6.083
			c0.371,0.206,0.895,0.206,1.237,0l39.95-23.058c0.372-0.212,0.609-0.641,0.609-1.081v-46.104c0-0.451-0.237-0.872-0.62-1.101
			l-39.933-23.038c-0.369-0.216-0.859-0.216-1.231,0l-39.923,23.045c-0.388,0.222-0.634,0.657-0.634,1.094v46.104
			c0,0.44,0.246,0.858,0.63,1.067l10.944,6.323c5.938,2.969,9.574-0.528,9.574-4.041v-45.519c0-0.645,0.517-1.151,1.161-1.151h5.065
			c0.634,0,1.158,0.507,1.158,1.151v45.519c0,7.925-4.316,12.47-11.829,12.47c-2.309,0-4.127,0-9.202-2.501l-10.476-6.03
			c-2.588-1.496-4.19-4.293-4.19-7.288v-46.104c0-2.995,1.602-5.792,4.19-7.281L292.763,327c2.528-1.429,5.888-1.429,8.396,0
			l39.947,23.085c2.587,1.496,4.195,4.286,4.195,7.281v46.104c0,2.995-1.608,5.781-4.195,7.288l-39.947,23.064
			C299.882,434.563,298.433,434.944,296.953,434.944"/>
		<path clip-path="url(#SVGID_2_)" fill="#699F63" d="M309.293,403.182c-17.481,0-21.144-8.024-21.144-14.755
			c0-0.641,0.514-1.151,1.154-1.151h5.165c0.577,0,1.058,0.415,1.148,0.979c0.78,5.258,3.105,7.912,13.677,7.912
			c8.416,0,11.999-1.904,11.999-6.369c0-2.574-1.016-4.485-14.095-5.767c-10.931-1.081-17.692-3.496-17.692-12.239
			c0-8.062,6.794-12.868,18.186-12.868c12.798,0,19.131,4.441,19.933,13.972c0.03,0.329-0.086,0.645-0.305,0.889
			c-0.219,0.229-0.524,0.369-0.846,0.369h-5.186c-0.537,0-1.012-0.382-1.121-0.902c-1.243-5.533-4.269-7.302-12.476-7.302
			c-9.189,0-10.257,3.201-10.257,5.601c0,2.906,1.26,3.751,13.667,5.393c12.276,1.623,18.108,3.921,18.108,12.55
			C329.21,398.195,321.952,403.182,309.293,403.182"/>
		<path clip-path="url(#SVGID_2_)" fill="#699F63" d="M366.898,354.831c0,4.236-3.464,7.699-7.698,7.699
			c-4.197,0-7.7-3.422-7.7-7.699c0-4.359,3.586-7.701,7.7-7.701C363.355,347.13,366.898,350.472,366.898,354.831 M352.744,354.81
			c0,3.586,2.893,6.479,6.436,6.479c3.586,0,6.479-2.954,6.479-6.479c0-3.585-2.933-6.437-6.479-6.437
			C355.677,348.373,352.744,351.184,352.744,354.81 M356.307,350.511h2.976c1.019,0,3.016,0,3.016,2.283
			c0,1.589-1.019,1.914-1.632,2.118c1.184,0.081,1.264,0.856,1.426,1.955c0.083,0.692,0.206,1.875,0.448,2.281h-1.831
			c-0.043-0.406-0.329-2.607-0.329-2.729c-0.119-0.49-0.285-0.732-0.896-0.732h-1.506v3.461h-1.672V350.511z M357.938,354.3h1.344
			c1.098,0,1.304-0.772,1.304-1.221c0-1.183-0.816-1.183-1.264-1.183h-1.384V354.3z"/>
		<path clip-path="url(#SVGID_2_)" fill-rule="evenodd" clip-rule="evenodd" fill="#333333" d="M173.243,254.567
			c0-1.841-0.969-3.533-2.558-4.445l-42.355-24.375c-0.716-0.422-1.519-0.641-2.331-0.674h-0.438
			c-0.81,0.033-1.612,0.252-2.339,0.674l-42.355,24.375c-1.579,0.912-2.561,2.604-2.561,4.445l0.093,65.635
			c0,0.913,0.474,1.762,1.277,2.21c0.786,0.471,1.758,0.471,2.541,0l25.172-14.414c1.592-0.945,2.561-2.614,2.561-4.438v-30.665
			c0-1.828,0.968-3.52,2.554-4.429l10.718-6.173c0.799-0.461,1.672-0.687,2.564-0.687c0.873,0,1.768,0.226,2.544,0.687l10.715,6.173
			c1.586,0.909,2.558,2.601,2.558,4.429v30.665c0,1.824,0.982,3.504,2.564,4.438l25.165,14.414c0.789,0.471,1.775,0.471,2.557,0
			c0.78-0.448,1.271-1.297,1.271-2.21L173.243,254.567z"/>
		<path clip-path="url(#SVGID_2_)" fill-rule="evenodd" clip-rule="evenodd" fill="#333333" d="M377.04,164.34
			c-0.793-0.44-1.76-0.431-2.543,0.029c-0.78,0.459-1.262,1.299-1.262,2.206v65c0,0.639-0.342,1.231-0.894,1.551
			c-0.555,0.32-1.237,0.32-1.791,0l-10.609-6.112c-1.582-0.913-3.529-0.911-5.112,0.001l-42.371,24.453
			c-1.584,0.914-2.559,2.603-2.559,4.431v48.917c0,1.828,0.975,3.516,2.557,4.432l42.37,24.471c1.584,0.914,3.534,0.914,5.118,0
			l42.377-24.471c1.582-0.916,2.558-2.604,2.558-4.432V182.879c0-1.854-1.004-3.564-2.624-4.468L377.04,164.34z M373.109,288.743
			c0,0.456-0.244,0.879-0.64,1.106l-14.549,8.386c-0.395,0.227-0.882,0.227-1.276,0l-14.548-8.386
			c-0.397-0.227-0.641-0.65-0.641-1.106v-16.799c0-0.456,0.243-0.879,0.64-1.108l14.547-8.402c0.396-0.229,0.884-0.229,1.28,0
			l14.548,8.402c0.395,0.229,0.639,0.652,0.639,1.108V288.743z"/>
		<path clip-path="url(#SVGID_2_)" fill-rule="evenodd" clip-rule="evenodd" fill="#333333" d="M518.131,271.505
			c1.576-0.915,2.546-2.601,2.546-4.424v-11.854c0-1.823-0.97-3.51-2.548-4.425l-42.099-24.443
			c-1.584-0.921-3.539-0.922-5.127-0.007l-42.356,24.453c-1.583,0.914-2.558,2.602-2.558,4.43v48.903
			c0,1.841,0.986,3.537,2.584,4.446l42.093,23.985c1.552,0.886,3.455,0.896,5.017,0.027l25.46-14.15
			c0.809-0.45,1.312-1.297,1.316-2.22c0.006-0.923-0.485-1.776-1.284-2.235l-42.625-24.465c-0.796-0.456-1.286-1.304-1.286-2.219
			v-15.326c0-0.914,0.488-1.76,1.281-2.216l13.266-7.648c0.789-0.456,1.765-0.456,2.555,0l13.271,7.648
			c0.793,0.456,1.28,1.302,1.28,2.216v12.058c0,0.916,0.49,1.762,1.283,2.218c0.793,0.458,1.77,0.454,2.561-0.005L518.131,271.505z"
			/>
		<path clip-path="url(#SVGID_2_)" fill-rule="evenodd" clip-rule="evenodd" fill="#699F63" d="M472.842,269.214
			c0.305-0.176,0.679-0.176,0.982,0l8.13,4.69c0.304,0.176,0.491,0.5,0.491,0.851v9.388c0,0.352-0.188,0.675-0.491,0.851
			l-8.13,4.691c-0.304,0.176-0.678,0.176-0.982,0l-8.124-4.691c-0.304-0.176-0.49-0.499-0.49-0.851v-9.388
			c0-0.351,0.187-0.675,0.49-0.851L472.842,269.214z"/>
	</g>
	<g display="inline">
		<defs>
			<path id="SVGID_3_" d="M239.032,226.607l-42.134,24.315c-1.576,0.909-2.545,2.588-2.545,4.407v48.666
				c0,1.817,0.969,3.497,2.544,4.408l42.133,24.334c1.576,0.909,3.516,0.909,5.091,0l42.124-24.334
				c1.574-0.911,2.543-2.591,2.543-4.408v-48.668c0-1.817-0.969-3.496-2.545-4.405l-42.123-24.315
				c-0.787-0.454-1.666-0.682-2.544-0.682C240.697,225.925,239.819,226.153,239.032,226.607"/>
		</defs>
		<clipPath id="SVGID_4_">
			<use xlink:href="#SVGID_3_"  overflow="visible"/>
		</clipPath>
		
			<linearGradient id="SVGID_5_" gradientUnits="userSpaceOnUse" x1="0" y1="600" x2="1" y2="600" gradientTransform="matrix(-38.0649 77.6524 77.6524 38.0649 -46332.7109 -22594.1992)">
			<stop  offset="0" style="stop-color:#41873F"/>
			<stop  offset="0.3288" style="stop-color:#418B3D"/>
			<stop  offset="0.6352" style="stop-color:#419637"/>
			<stop  offset="0.9319" style="stop-color:#3FA92D"/>
			<stop  offset="1" style="stop-color:#3FAE2A"/>
		</linearGradient>
		<polygon clip-path="url(#SVGID_4_)" fill="url(#SVGID_5_)" points="331.362,246.795 270.492,370.969 151.779,312.776 
			212.648,188.602 		"/>
	</g>
	<g display="inline">
		<defs>
			<path id="SVGID_6_" d="M195.4,307.086c0.401,0.525,0.906,0.975,1.497,1.317l36.143,20.874l6.017,3.46
				c0.9,0.519,1.927,0.738,2.936,0.665c0.337-0.028,0.673-0.09,1.001-0.186l44.43-81.357c-0.34-0.365-0.736-0.682-1.181-0.938
				l-27.588-15.925l-14.579-8.39c-0.417-0.24-0.864-0.413-1.323-0.526L195.4,307.086z"/>
		</defs>
		<clipPath id="SVGID_7_">
			<use xlink:href="#SVGID_6_"  overflow="visible"/>
		</clipPath>
		
			<linearGradient id="SVGID_8_" gradientUnits="userSpaceOnUse" x1="0" y1="600.0059" x2="1" y2="600.0059" gradientTransform="matrix(106.8073 -78.9149 -78.9149 -106.8073 47584.0938 64369.6445)">
			<stop  offset="0" style="stop-color:#41873F"/>
			<stop  offset="0.1376" style="stop-color:#41873F"/>
			<stop  offset="0.4032" style="stop-color:#54A044"/>
			<stop  offset="0.7136" style="stop-color:#66B848"/>
			<stop  offset="0.9081" style="stop-color:#6CC04A"/>
			<stop  offset="1" style="stop-color:#6CC04A"/>
		</linearGradient>
		<polygon clip-path="url(#SVGID_7_)" fill="url(#SVGID_8_)" points="144.071,264.005 254.928,182.099 338.753,295.552 
			227.896,377.458 		"/>
	</g>
	<g display="inline">
		<defs>
			<path id="SVGID_9_" d="M239.032,226.607l-42.134,24.315c-1.575,0.909-2.545,2.588-2.545,4.407v48.666
				c0,1.817,0.97,3.497,2.544,4.408l42.133,24.334c1.576,0.909,3.516,0.909,5.091,0l42.124-24.334
				c1.574-0.911,2.543-2.591,2.543-4.408v-48.668c0-1.817-0.969-3.496-2.545-4.405l-42.123-24.315
				c-0.787-0.454-1.666-0.682-2.544-0.682C240.697,225.925,239.819,226.153,239.032,226.607"/>
		</defs>
		<clipPath id="SVGID_10_">
			<use xlink:href="#SVGID_9_"  overflow="visible"/>
		</clipPath>
		<g clip-path="url(#SVGID_10_)">
			<defs>
				<polygon id="SVGID_11_" points="237.627,217.669 237.047,218 237.821,218 				"/>
			</defs>
			<clipPath id="SVGID_12_">
				<use xlink:href="#SVGID_11_"  overflow="visible"/>
			</clipPath>
			
				<linearGradient id="SVGID_13_" gradientUnits="userSpaceOnUse" x1="0" y1="600" x2="1" y2="600" gradientTransform="matrix(97.417 0 0 -97.417 192.8398 58668.0352)">
				<stop  offset="0" style="stop-color:#6CC04A"/>
				<stop  offset="0.0919" style="stop-color:#6CC04A"/>
				<stop  offset="0.2864" style="stop-color:#66B848"/>
				<stop  offset="0.5968" style="stop-color:#54A044"/>
				<stop  offset="0.8624" style="stop-color:#41873F"/>
				<stop  offset="1" style="stop-color:#41873F"/>
			</linearGradient>
			<rect x="237.047" y="217.669" clip-path="url(#SVGID_12_)" fill="url(#SVGID_13_)" width="0.774" height="0.331"/>
		</g>
	</g>
	<g display="inline">
		<defs>
			<path id="SVGID_14_" d="M241.065,225.952c-0.705,0.07-1.398,0.289-2.033,0.655l-42.014,24.245l45.293,82.513
				c0.628-0.091,1.243-0.301,1.81-0.628l42.124-24.334c1.301-0.753,2.189-2.031,2.458-3.478l-46.178-78.89
				c-0.341-0.068-0.688-0.102-1.035-0.102C241.348,225.934,241.206,225.94,241.065,225.952"/>
		</defs>
		<clipPath id="SVGID_15_">
			<use xlink:href="#SVGID_14_"  overflow="visible"/>
		</clipPath>
		
			<linearGradient id="SVGID_16_" gradientUnits="userSpaceOnUse" x1="0" y1="600" x2="1" y2="600" gradientTransform="matrix(97.417 0 0 -97.417 192.8398 58729.8477)">
			<stop  offset="0" style="stop-color:#6CC04A"/>
			<stop  offset="0.0919" style="stop-color:#6CC04A"/>
			<stop  offset="0.2864" style="stop-color:#66B848"/>
			<stop  offset="0.5968" style="stop-color:#54A044"/>
			<stop  offset="0.8624" style="stop-color:#41873F"/>
			<stop  offset="1" style="stop-color:#41873F"/>
		</linearGradient>
		<rect x="197.018" y="225.934" clip-path="url(#SVGID_15_)" fill="url(#SVGID_16_)" width="91.685" height="107.431"/>
	</g>
	<g display="inline">
		<defs>
			<path id="SVGID_17_" d="M239.032,226.607l-42.134,24.315c-1.575,0.909-2.545,2.588-2.545,4.407v48.666
				c0,1.817,0.97,3.497,2.544,4.408l42.133,24.334c1.576,0.909,3.516,0.909,5.091,0l42.124-24.334
				c1.574-0.911,2.543-2.591,2.543-4.408v-48.668c0-1.817-0.969-3.496-2.545-4.405l-42.123-24.315
				c-0.787-0.454-1.666-0.682-2.544-0.682C240.697,225.925,239.819,226.153,239.032,226.607"/>
		</defs>
		<clipPath id="SVGID_18_">
			<use xlink:href="#SVGID_17_"  overflow="visible"/>
		</clipPath>
		<g clip-path="url(#SVGID_18_)">
			<defs>
				<polygon id="SVGID_19_" points="290.279,307.62 290,307.143 290,307.782 				"/>
			</defs>
			<clipPath id="SVGID_20_">
				<use xlink:href="#SVGID_19_"  overflow="visible"/>
			</clipPath>
			
				<linearGradient id="SVGID_21_" gradientUnits="userSpaceOnUse" x1="0" y1="600" x2="1" y2="600" gradientTransform="matrix(97.417 0 0 -97.417 192.8398 58757.6602)">
				<stop  offset="0" style="stop-color:#6CC04A"/>
				<stop  offset="0.0919" style="stop-color:#6CC04A"/>
				<stop  offset="0.2864" style="stop-color:#66B848"/>
				<stop  offset="0.5968" style="stop-color:#54A044"/>
				<stop  offset="0.8624" style="stop-color:#41873F"/>
				<stop  offset="1" style="stop-color:#41873F"/>
			</linearGradient>
			<rect x="290" y="307.143" clip-path="url(#SVGID_20_)" fill="url(#SVGID_21_)" width="0.279" height="0.64"/>
		</g>
	</g>
	<g display="inline">
		<defs>
			<path id="SVGID_22_" d="M239.032,226.607l-42.134,24.315c-1.575,0.909-2.545,2.588-2.545,4.407v48.666
				c0,1.817,0.97,3.497,2.544,4.408l42.133,24.334c1.576,0.909,3.516,0.909,5.091,0l42.124-24.334
				c1.574-0.911,2.543-2.591,2.543-4.408v-48.668c0-1.817-0.969-3.496-2.545-4.405l-42.123-24.315
				c-0.787-0.454-1.666-0.682-2.544-0.682C240.697,225.925,239.819,226.153,239.032,226.607"/>
		</defs>
		<clipPath id="SVGID_23_">
			<use xlink:href="#SVGID_22_"  overflow="visible"/>
		</clipPath>
		<g clip-path="url(#SVGID_23_)">
			<defs>
				<path id="SVGID_24_" d="M286.351,308.403l-42.177,24.333c-0.58,0.335-1.213,0.545-1.861,0.633l0.84,1.53L290,307.782v-0.64
					l-1.158-1.979C288.495,306.512,287.579,307.692,286.351,308.403"/>
			</defs>
			<clipPath id="SVGID_25_">
				<use xlink:href="#SVGID_24_"  overflow="visible"/>
			</clipPath>
			
				<linearGradient id="SVGID_26_" gradientUnits="userSpaceOnUse" x1="0" y1="600" x2="1" y2="600" gradientTransform="matrix(97.417 0 0 -97.417 192.8398 58770.2227)">
				<stop  offset="0" style="stop-color:#6CC04A"/>
				<stop  offset="0.0919" style="stop-color:#6CC04A"/>
				<stop  offset="0.2864" style="stop-color:#66B848"/>
				<stop  offset="0.5968" style="stop-color:#54A044"/>
				<stop  offset="0.8624" style="stop-color:#41873F"/>
				<stop  offset="1" style="stop-color:#41873F"/>
			</linearGradient>
			<rect x="242.313" y="305.164" clip-path="url(#SVGID_25_)" fill="url(#SVGID_26_)" width="47.687" height="29.735"/>
		</g>
	</g>
	<g display="inline">
		<defs>
			<path id="SVGID_27_" d="M239.032,226.607l-42.134,24.315c-1.575,0.909-2.545,2.588-2.545,4.407v48.666
				c0,1.817,0.97,3.497,2.544,4.408l42.133,24.334c1.576,0.909,3.516,0.909,5.091,0l42.124-24.334
				c1.574-0.911,2.543-2.591,2.543-4.408v-48.668c0-1.817-0.969-3.496-2.545-4.405l-42.123-24.315
				c-0.787-0.454-1.666-0.682-2.544-0.682C240.697,225.925,239.819,226.153,239.032,226.607"/>
		</defs>
		<clipPath id="SVGID_28_">
			<use xlink:href="#SVGID_27_"  overflow="visible"/>
		</clipPath>
		<g clip-path="url(#SVGID_28_)">
			<defs>
				<path id="SVGID_29_" d="M286.351,308.403l-42.177,24.333c-0.58,0.335-1.213,0.545-1.861,0.633l0.84,1.53L290,307.782v-0.64
					l-1.158-1.979C288.495,306.512,287.579,307.692,286.351,308.403"/>
			</defs>
			<clipPath id="SVGID_30_">
				<use xlink:href="#SVGID_29_"  overflow="visible"/>
			</clipPath>
			
				<linearGradient id="SVGID_31_" gradientUnits="userSpaceOnUse" x1="0" y1="599.998" x2="1" y2="599.998" gradientTransform="matrix(-60.0806 122.5644 122.5644 60.0806 -73234.2109 -35805.9492)">
				<stop  offset="0" style="stop-color:#41873F"/>
				<stop  offset="0.3288" style="stop-color:#418B3D"/>
				<stop  offset="0.6352" style="stop-color:#419637"/>
				<stop  offset="0.9319" style="stop-color:#3FA92D"/>
				<stop  offset="1" style="stop-color:#3FAE2A"/>
			</linearGradient>
			<polygon clip-path="url(#SVGID_30_)" fill="url(#SVGID_31_)" points="301.752,310.925 280.761,353.746 230.561,329.139 
				251.552,286.317 			"/>
		</g>
	</g>
</g>
</svg>
