<svg class="jhony-logo" id="Layer_1" data-name="Layer 1" xmlns="http://www.w3.org/2000/svg" viewBox="0 0 56.52 46.5">
    <defs>
        <style>
            .cls-1 {
                fill: #ca611f;
            }
            .cls-2 {
                fill: #434142;
            }
            .cls-3 {
                fill: #5b5b5f;
            }
            .cls-4 {
                fill: #d3804d;
            }
        </style>
    </defs>
    <path class="cls-1" d="M8.56,42.13l3-1.14v1L9.35,43l2.21,1.25v1l-3-1.47V42.13Z" transform="translate(-1.74 -6.75)"/><path class="cls-1" d="M13.09,46.41H11.92l2.13-6.06h1.16Z" transform="translate(-1.74 -6.75)"/>
    <path class="jhony-logo__name" d="M16.75,43.8v1.57h1.9v-5h1.09v6.06H15.59V43.8h1.16Z" transform="translate(-1.74 -6.75)"/>
    <path class="jhony-logo__name" d="M24.27,40.36v6.06H20.12V40.36h4.16Zm-1.09,1h-1.9v4h1.9v-4Z" transform="translate(-1.74 -6.75)"/>
    <path class="jhony-logo__name" d="M25.81,46.41H24.64V40.36h1.16l1.9,3.4v-3.4H28.8v6.06H27.71l-1.9-3.5v3.5Z" transform="translate(-1.74 -6.75)"/>
    <path class="jhony-logo__name" d="M32.24,43.88h-1.9v2.54H29.17V40.36h4.16v6.06H32.24V43.88Zm-1.9-2.48v1.5h1.9v-1.5h-1.9Z" transform="translate(-1.74 -6.75)"/>
    <path class="jhony-logo__name" d="M35.27,41.39H33.7v-1h4.16v1H36.43v5H35.27v-5Z" transform="translate(-1.74 -6.75)"/>
    <path class="jhony-logo__name" d="M39.39,46.41H38.22V40.36h1.16v2.54h1.9V40.36h1.09v6.06H41.29V43.88h-1.9v2.54Z" transform="translate(-1.74 -6.75)"/>
    <path class="jhony-logo__name" d="M45.82,43.88h-1.9v2.54H42.75V40.36h4.16v6.06H45.82V43.88Zm-1.9-2.48v1.5h1.9v-1.5h-1.9Z" transform="translate(-1.74 -6.75)"/>
    <path class="jhony-logo__name" d="M48.44,46.41H47.28V40.36h1.16l1.9,3.4v-3.4h1.09v6.06H50.35l-1.9-3.5v3.5Z" transform="translate(-1.74 -6.75)"/>
    <path class="jhony-logo__name" d="M19.08,47.19v6.06H14.92V47.19h4.16Zm-1.09,1h-1.9v4H18v-4Z" transform="translate(-1.74 -6.75)"/>
    <path class="jhony-logo__name" d="M19.45,53.25V47.19h4.16v3.52H22.18l1.42,2.54H22.51L21,50.72H20.61v2.54H19.45Zm1.16-5v1.5h1.9v-1.5h-1.9Z" transform="translate(-1.74 -6.75)"/>
    <path class="jhony-logo__name" d="M25.55,48.23H24v-1h4.16v1H26.71v5H25.55v-5Z" transform="translate(-1.74 -6.75)"/>
    <path class="jhony-logo__name" d="M29.67,48.23v1.5h3v1h-3v1.5h3v1H28.5V47.19h4.16v1h-3Z" transform="translate(-1.74 -6.75)"/>
    <path class="jhony-logo__name" d="M34.89,49.73h2.3v3.52H33V47.19h4.16v1h-3v4h1.9v-1.5H34.89v-1Z" transform="translate(-1.74 -6.75)"/>
    <path class="jhony-logo__name" d="M40.62,50.72h-1.9v2.54H37.56V47.19h4.16v6.06H40.62V50.72Zm-1.9-2.48v1.5h1.9v-1.5h-1.9Z" transform="translate(-1.74 -6.75)"/>
    <path class="cls-1" d="M45.08,50.56l-3,1.47V51l2.21-1.25-2.21-1v-1l3,1.14v1.59Z" transform="translate(-1.74 -6.75)"/>
    <polygon class="cls-2" points="26.38 23.09 18.84 30.63 18.84 30.63 18.84 30.63 37.69 30.63 30.14 23.09 26.38 23.09"/>
    <polygon class="cls-3" points="30.14 7.59 30.14 23.09 37.69 30.63 37.69 30.63 37.69 30.63 37.69 0.04 30.14 7.59"/>
    <polygon class="cls-3" points="26.38 23.09 26.38 23.09 26.38 13.88 18.84 21.42 18.84 30.63 18.84 30.63 26.38 23.09"/>
    <polygon class="jhony-logo__gt-top" points="51.19 9.98 41.21 0 41.21 10.66 45.86 15.31 51.19 20.65 56.52 15.31 51.19 9.98"/>
    <polygon class="jhony-logo__gt-bottom" points="45.86 15.31 41.21 19.96 41.21 30.63 51.19 20.65 45.86 15.31"/>
    <polygon class="jhony-logo__lt-top" points="5.33 9.98 0 15.31 5.33 20.65 10.66 15.31 15.31 10.66 15.31 0 5.33 9.98"/>
    <polygon class="jhony-logo__lt-bottom" points="10.66 15.31 15.31 19.96 15.31 30.63 5.33 20.65 10.66 15.31"/>
</svg>
