<?xml version="1.0" encoding="utf-8"?>
<!-- Generator: Adobe Illustrator 16.0.0, SVG Export Plug-In . SVG Version: 6.00 Build 0)  -->
<!DOCTYPE svg PUBLIC "-//W3C//DTD SVG 1.1//EN" "http://www.w3.org/Graphics/SVG/1.1/DTD/svg11.dtd">
<svg version="1.1" xmlns="http://www.w3.org/2000/svg" xmlns:xlink="http://www.w3.org/1999/xlink" x="0px" y="0px" width="600px"
	 height="600px" viewBox="0 0 600 600" enable-background="new 0 0 600 600" xml:space="preserve">
<g id="stylus">
	<g>
		<path fill="#333333" d="M108.81,394.279c14.337-17.147,16.024-34.859,4.919-67.751c-7.028-20.804-18.695-36.827-10.121-49.76
			c9.136-13.775,28.535-0.421,12.37,17.992l3.233,2.25c19.397,2.248,28.956-24.319,14.478-31.909
			c-38.232-19.96-71.687,18.414-56.928,62.833c6.325,18.834,15.181,38.795,8.012,54.678c-6.185,13.635-18.132,21.647-26.145,21.929
			c-16.727,0.843-5.623-37.53,13.635-47.089c1.686-0.844,4.076-1.968,1.827-4.779c-23.755-2.671-37.67,8.294-45.683,23.614
			C5.073,420.846,72.685,437.292,108.81,394.279z"/>
		<path fill="#333333" d="M526.281,263.275c5.482,13.493,13.776,26.847,8.856,38.654c-4.077,10.12-9.417,14.337-15.322,15.321
			c-8.294,1.405-6.042-24.599,8.154-32.33c1.266-0.703,3.091-4.075,1.405-6.044c-17.993-0.984-28.112,7.591-33.595,18.977
			c-15.885,33.313,35.983,42.45,61.425,9.699c10.122-13.073,10.542-26.004,0.846-49.479c-6.186-14.9-15.605-26.004-9.7-35.844
			c6.326-10.402,21.505-1.406,10.12,12.509l2.531,1.406c14.759,0.844,20.802-18.835,9.557-23.754
			C540.9,199.74,513.21,231.648,526.281,263.275z"/>
		<path fill="#333333" d="M338.489,227.711c-10.26-8.152-39.076,5.483-47.228,25.724c-10.263,25.723-25.443,63.254-40.342,79.698
			c-15.743,17.291-17.29,3.938-15.743-6.044c3.655-23.474,26.566-77.871,39.076-93.193c-4.638-6.888-35-5.904-56.084,26.847
			c-7.872,12.371-25.864,53.556-45.824,86.024c-4.357,7.028-9.84,2.108-5.623-14.337c4.779-18.977,18.836-71.125,36.968-112.169
			c47.51-9.418,97.974-16.023,136.628-16.165c5.2-1.406,8.714-6.044,0-6.325c-33.315-1.125-83.354,2.811-130.162,8.715
			c8.996-17.992,18.694-32.33,28.534-38.374c-10.683-6.747-32.33-4.077-44.699,14.196c-5.482,8.152-10.964,17.992-16.165,28.675
			c-34.298,5.341-63.676,11.385-78.576,17.008c-15.462,5.904-13.775,24.599-4.357,21.084c19.539-7.31,45.964-14.899,75.341-21.646
			c-18.694,42.169-33.313,91.928-36.827,112.169c-8.715,49.197,21.788,48.916,36.688,29.519c16.165-21.226,49.9-95.864,55.1-103.735
			c1.546-2.671,3.655-1.266,2.531,1.124c-37.671,75.201-34.438,104.298-3.936,97.831c13.775-2.951,37.53-26.565,43.715-38.794
			c1.265-2.953,3.935-2.672,3.373-1.406c-23.896,61.988-54.257,112.169-74.639,127.913c-18.554,14.196-32.33-16.587,33.314-60.724
			c9.699-6.607,5.201-15.603-5.763-12.511l0,0c-33.876,5.342-130.865,36.125-173.455,65.643c-3.233,2.25-6.185,4.077-6.044,8.716
			c0.14,2.671,4.779,1.687,7.028,0.281c55.1-33.032,100.221-45.965,151.948-56.788c0.703,0.281,1.546,0.421,2.249,0.142
			c2.39-0.563,2.249,0.702,0.703,1.686c-3.514,1.969-7.028,3.795-7.872,4.077c-34.859,13.635-55.944,43.714-48.494,59.036
			c6.325,13.214,40.482,8.434,56.647-0.281c39.638-21.506,68.454-63.675,88.132-121.869
			C311.782,287.874,333.43,229.398,338.489,227.711z"/>
		<path fill="#333333" d="M568.873,346.769c-64.52-8.434-203.677,2.812-265.102,19.118c-18.275,4.778-13.213,14.478-3.937,12.65
			c0.141,0,4.077-0.984,4.216-0.984c50.463-9.839,172.893-18.414,244.3-4.779C556.925,374.32,582.649,348.596,568.873,346.769z"/>
		<path fill="#333333" d="M356.482,339.18c17.99-8.997,44.697-64.659,62.268-95.162c1.266-2.25,3.515-0.421,2.251,1.125
			c-44.42,76.467-25.584,85.322-8.014,84.198c23.476-1.405,45.12-35.141,49.9-42.731c1.968-2.952,3.094-0.563,1.968,1.545
			c-1.125,3.515-5.199,9.7-8.996,18.134c-5.34,11.948,0.282,16.586,4.92,18.694c7.311,3.515,27.27,1.266,30.36-10.964
			c-19.958-0.421,27.833-94.598,32.753-100.362c-13.354-7.731-34.016,0.703-43.435,19.257
			c-20.099,39.779-36.967,71.829-47.509,72.39c-20.524,1.124,23.613-88.695,30.781-91.506c-4.357-6.326-32.33-3.656-47.932,20.521
			c-5.622,8.715-39.921,69.438-48.354,79.418c-14.899,17.712-16.021,2.53-11.805-15.181c1.405-6.044,3.794-13.774,6.885-22.35
			c9.84-22.209,20.382-29.237,26.851-36.405c43.432-48.213,68.313-87.291,58.474-102.611c-8.717-13.635-37.813-7.591-56.509,20.521
			c-34.438,51.587-66.204,122.29-70.281,154.62C317.125,344.66,340.598,347.051,356.482,339.18z M374.756,244.579
			c1.545-3.514,2.528-4.497,5.199-10.401l0,0c15.462-34.017,34.861-69.86,48.215-86.587c8.293-8.714,19.958,3.092-1.126,35.422
			c-12.368,19.118-26.424,36.688-41.746,52.15c0,0,0,0,0,0.14c-3.938,4.357-7.451,8.012-8.997,10.121
			C375.176,246.829,373.913,246.548,374.756,244.579z"/>
	</g>
</g>
<g id="sass" display="none">
	<path display="inline" fill="#CD6799" d="M505.649,331.975c-19.869,0.104-37.139,4.89-51.599,11.964
		c-5.306-10.508-10.611-19.87-11.547-26.735c-1.041-8.011-2.289-12.9-1.041-22.471c1.249-9.57,6.866-23.198,6.763-24.239
		c-0.104-1.04-1.249-5.93-12.691-6.034c-11.444-0.104-21.326,2.185-22.471,5.202s-3.329,9.883-4.785,16.957
		c-1.977,10.402-22.887,47.542-34.85,66.996c-3.85-7.595-7.178-14.252-7.907-19.558c-1.039-8.011-2.288-12.899-1.039-22.471
		c1.247-9.57,6.865-23.199,6.762-24.239c-0.104-1.041-1.249-5.93-12.692-6.034c-11.442-0.104-21.326,2.185-22.47,5.202
		c-1.145,3.017-2.394,10.09-4.786,16.958c-2.393,6.865-30.168,68.866-37.45,84.887c-3.745,8.219-6.97,14.772-9.258,19.246l0,0
		c0,0-0.104,0.312-0.416,0.832c-1.977,3.849-3.121,5.93-3.121,5.93s0,0,0,0.104c-1.56,2.809-3.225,5.41-4.057,5.41
		c-0.624,0-1.769-7.49,0.208-17.686c4.161-21.534,14.044-55.031,13.94-56.176c0-0.624,1.872-6.449-6.45-9.466
		c-8.114-3.017-11.027,1.977-11.755,1.977s-1.249,1.769-1.249,1.769s9.051-37.659-17.269-37.659
		c-16.437,0-39.115,17.997-50.35,34.226c-7.074,3.85-22.158,12.067-38.283,20.91c-6.138,3.433-12.483,6.866-18.413,10.09
		c-0.416-0.415-0.833-0.936-1.249-1.352c-31.833-34.018-90.713-58.048-88.217-103.717c0.937-16.645,6.658-60.337,113.08-113.392
		c87.593-43.172,157.292-31.208,169.36-4.681c17.269,37.866-37.348,108.19-127.853,118.385c-34.538,3.849-52.639-9.467-57.216-14.46
		c-4.786-5.201-5.514-5.514-7.282-4.473c-2.913,1.561-1.04,6.242,0,8.947c2.705,7.074,13.836,19.558,32.665,25.695
		c16.645,5.41,57.112,8.426,106.11-10.507c54.823-21.222,97.683-80.207,85.096-129.621C359.28,88.546,276.057,72.006,197.307,99.99
		c-46.813,16.645-97.58,42.859-134.094,76.981c-43.38,40.571-50.246,75.837-47.438,90.609
		c10.091,52.431,82.391,86.552,111.312,111.832c-1.457,0.832-2.809,1.561-3.953,2.185c-14.46,7.178-69.596,35.994-83.327,66.476
		c-15.605,34.537,2.497,59.296,14.459,62.625c37.139,10.299,75.317-8.219,95.811-38.803c20.494-30.585,17.997-70.324,8.531-88.529
		c-0.104-0.208-0.208-0.416-0.417-0.624c3.745-2.185,7.594-4.474,11.339-6.658c7.386-4.369,14.668-8.427,20.91-11.755
		c-3.537,9.675-6.138,21.222-7.386,37.866c-1.56,19.558,6.45,44.94,16.957,54.928c4.682,4.369,10.195,4.474,13.732,4.474
		c12.275,0,17.789-10.195,23.927-22.263c7.49-14.771,14.252-31.937,14.252-31.937s-8.427,46.396,14.46,46.396
		c8.322,0,16.749-10.819,20.494-16.332c0,0.104,0,0.104,0,0.104s0.208-0.312,0.624-1.04c0.832-1.353,1.353-2.185,1.353-2.185
		s0-0.104,0-0.208c3.329-5.826,10.819-19.038,21.95-40.988c14.356-28.295,28.192-63.665,28.192-63.665s1.248,8.635,5.514,22.99
		c2.496,8.426,7.697,17.685,11.858,26.632c-3.329,4.681-5.409,7.281-5.409,7.281s0,0,0.104,0.104
		c-2.705,3.537-5.618,7.386-8.843,11.131c-11.34,13.523-24.863,29.024-26.735,33.498c-2.185,5.305-1.665,9.154,2.496,12.274
		c3.018,2.29,8.427,2.602,13.94,2.29c10.194-0.729,17.373-3.226,20.909-4.786c5.514-1.977,11.964-4.993,17.998-9.467
		c11.131-8.218,17.893-19.974,17.269-35.475c-0.313-8.53-3.121-17.06-6.554-25.07c1.04-1.456,1.977-2.913,3.017-4.369
		c17.581-25.695,31.209-53.887,31.209-53.887s1.248,8.634,5.513,22.989c2.081,7.283,6.347,15.189,10.092,22.887
		c-16.541,13.42-26.736,29.025-30.377,39.22c-6.554,18.933-1.456,27.464,8.218,29.44c4.369,0.936,10.611-1.146,15.189-3.122
		c5.825-1.871,12.69-5.097,19.244-9.882c11.132-8.219,21.847-19.661,21.223-35.162c-0.313-7.074-2.185-14.044-4.785-20.806
		c14.043-5.826,32.145-9.051,55.239-6.346c49.518,5.825,59.297,36.722,57.424,49.726s-12.275,20.077-15.708,22.262
		c-3.434,2.185-4.577,2.914-4.266,4.474c0.416,2.289,2.081,2.185,4.993,1.769c4.058-0.728,26.008-10.507,26.944-34.434
		C586.272,365.057,557.144,331.663,505.649,331.975z M123.654,460.763c-16.437,17.894-39.323,24.655-49.206,18.934
		c-10.611-6.138-6.45-32.562,13.732-51.494c12.275-11.548,28.088-22.263,38.594-28.816c2.393-1.456,5.93-3.537,10.195-6.138
		c0.728-0.416,1.144-0.624,1.144-0.624l0,0c0.833-0.52,1.665-1.041,2.497-1.561C147.997,418.111,140.923,441.934,123.654,460.763z
		 M243.288,379.412c-5.721,13.939-17.685,49.622-24.967,47.646c-6.242-1.664-10.091-28.712-1.249-55.447
		c4.474-13.42,13.94-29.44,19.454-35.682c8.946-9.987,18.829-13.316,21.222-9.26C260.765,331.975,246.825,370.674,243.288,379.412z
		 M342.012,426.642c-2.393,1.248-4.682,2.081-5.722,1.456c-0.729-0.416,1.04-2.081,1.04-2.081s12.38-13.315,17.269-19.349
		c2.81-3.537,6.138-7.698,9.676-12.379c0,0.416,0,0.936,0,1.352C364.274,411.558,348.878,422.272,342.012,426.642z M418.161,409.269
		c-1.769-1.248-1.457-5.409,4.474-18.413c2.288-5.098,7.697-13.628,16.956-21.846c1.04,3.328,1.769,6.554,1.664,9.57
		C441.151,398.658,426.796,406.147,418.161,409.269z"/>
</g>
<g id="css" display="none">
	<g id="Page_1" display="inline">
		<g id="Layer_1_1_">
			<path id="Shape" fill="#131313" d="M416.92,30.606h-34.213l35.58,38.607v18.377H345V66.075h35.574L345,27.466V9.062h71.92V30.606
				L416.92,30.606z M330.475,30.606h-34.214l35.58,38.607v18.377h-73.287V66.075h35.577l-35.577-38.609V9.062h71.921V30.606
				L330.475,30.606z M244.875,31.48h-36.918v33.694h36.918v22.417h-63.158V9.062h63.158V31.48L244.875,31.48z"/>
			<path id="Shape_1_" fill="#1572B6" d="M131.408,544.206L93.892,123.441h412.216l-37.551,420.697l-168.81,46.799L131.408,544.206z
				"/>
			<path id="Shape_2_" fill="#33A9DC" d="M300.003,555.169l136.402-37.818l32.092-359.504H300.003V555.169z"/>
			<g id="Group" transform="translate(55.000000, 142.000000)">
				<path id="Shape_3_" fill="#FFFFFF" d="M245.001,168.289h68.288l4.715-52.846h-73.003V63.836h0.179h129.224l-1.237,13.846
					l-12.683,142.209H245.001V168.289z"/>
				<path id="Shape_4_" fill="#EBEBEB" d="M245.311,302.308l-0.226,0.064l-57.474-15.52l-3.676-41.156h-27.925h-23.876l7.229,81.026
					l105.709,29.346l0.238-0.068V302.308z"/>
				<path id="Shape_5_" fill="#FFFFFF" d="M308.902,217.707l-6.215,69.11l-57.556,15.537v53.687l105.794-29.318l0.774-8.719
					l8.978-100.297H308.902z"/>
				<path id="Shape_6_" fill="#EBEBEB" d="M245.18,63.836v32.051v19.428v0.127H120.694h-0.166l-1.035-11.599l-2.351-26.162
					l-1.234-13.846H245.18z"/>
				<path id="Shape_7_" fill="#EBEBEB" d="M245.001,168.294v32.052v19.426v0.128h-56.58h-0.166l-1.034-11.599l-2.354-26.162
					l-1.233-13.845H245.001z"/>
			</g>
		</g>
	</g>
</g>
<g id="html" display="none">
	<g display="inline">
		<polygon fill="#E44D26" points="132.412,542.732 95.122,124.478 504.878,124.478 467.548,542.666 299.75,589.186 		"/>
		<polygon fill="#F16529" points="300,553.629 435.589,516.037 467.489,158.676 300,158.676 		"/>
		<polygon fill="#EBEBEB" points="300,313.801 232.121,313.801 227.432,261.272 300,261.272 300,209.974 299.823,209.974 
			171.371,209.974 172.599,223.736 185.207,365.098 300,365.098 		"/>
		<polygon fill="#EBEBEB" points="300,447.024 299.774,447.086 242.646,431.658 238.993,390.748 211.232,390.748 187.498,390.748 
			194.686,471.291 299.764,500.462 300,500.395 		"/>
		<path d="M133.246,10.814h26.069v25.755h23.847V10.814h26.069v77.995h-26.068V62.692h-23.847v26.117h-26.068V10.814H133.246z"/>
		<path d="M243.512,36.679h-22.95V10.814h71.979v25.864h-22.959v52.13h-26.069L243.512,36.679L243.512,36.679z"/>
		<path d="M303.966,10.814h27.184l16.72,27.404l16.704-27.404h27.193v77.995h-25.962v-38.66l-17.936,27.732h-0.449l-17.947-27.732
			v38.66h-25.507V10.814z"/>
		<path d="M404.738,10.814h26.079v52.213h36.659v25.781h-62.738V10.814z"/>
		<polygon fill="#FFFFFF" points="299.823,313.801 299.823,365.098 362.989,365.098 357.035,431.625 299.823,447.067 
			299.823,500.435 404.985,471.291 405.757,462.624 417.812,327.575 419.062,313.801 405.239,313.801 		"/>
		<polygon fill="#FFFFFF" points="299.823,209.974 299.823,241.834 299.823,261.146 299.823,261.272 423.564,261.272 
			423.564,261.272 423.729,261.272 424.758,249.741 427.096,223.736 428.323,209.974 		"/>
	</g>
</g>
<g id="marionette" display="none">
	<g display="inline">
		<g>
			<g id="Group_1_" transform="translate(13) translate(.344)">
				<path id="Shape_20_" fill="#939598" d="M313.762,282.577l34.559-81.74c0.408-0.982,1.553-1.447,2.545-1.036
					c0.987,0.409,1.458,1.54,1.044,2.523l-30.457,72.024L313.762,282.577L313.762,282.577z"/>
				<path id="Shape_19_" fill="#931A2B" d="M343.574,240.979c0,0-16.537,21.673-28.211,34.198
					c-11.682,12.524-28.707,32.274-28.707,32.274v44.153c0.122-0.008,0.236-0.03,0.359-0.03c2.825,0,5.11,2.259,5.11,5.052
					c0,2.795-2.289,5.06-5.11,5.06c-0.123,0-0.237-0.029-0.359-0.038v44.546c0,0,21.438-14.566,36.97-28.661
					c17.51-15.893,36.971-40.706,36.971-40.706l-17.022-95.844V240.979z"/>
				<path id="Shape_18_" fill="#A7A9AC" d="M274.518,160.185l-0.16,17.214l-62.473,25.023l1.099-15.294l61.536-26.947
					L274.518,160.185z"/>
				<path id="Shape_17_" fill="#BCBEC0" d="M361.308,186.526l1.218,15.289l-62.788-24.521l-0.297-17.207L361.308,186.526
					L361.308,186.526z M286.954,154.744l0.064,17.581l-91.387-35.694l1.896-20.116L286.954,154.744z M197.528,116.515l-1.896,20.116
					l-12.119,7.152l2.095-19.642L197.528,116.515z"/>
				<path id="Shape_16_" fill="#A7A9AC" d="M375.972,115.765l2.047,20.105l-91.001,36.455l-0.068-17.584L375.972,115.765
					L375.972,115.765z"/>
				<path id="Shape_15_" fill="#BCBEC0" d="M387.984,123.295l2.247,19.628l-12.211-7.053l-2.046-20.103L387.984,123.295
					L387.984,123.295z"/>
				<path id="Shape_14_" fill="#808285" d="M224.323,205.939l-12.44-3.515l62.475-25.023l-90.846-33.617l12.119-7.154l91.387,35.694
					l91.002-36.455l12.211,7.053l-90.493,34.373l62.788,24.52l-12.411,3.617l-63.039-23.326l-62.752,23.828V205.939z"/>
				<path id="Shape_13_" fill="#939598" d="M184.499,256.426c-0.065,0-0.131,0-0.195-0.008c-1.068-0.107-1.849-1.045-1.743-2.108
					l11.137-111.123c0.106-1.052,1.036-1.831,2.127-1.724c1.068,0.102,1.85,1.047,1.744,2.103l-11.134,111.123
					c-0.102,0.995-0.941,1.738-1.931,1.738H184.499z M384.746,256.426c-1.017,0-1.877-0.79-1.938-1.81l-6.731-111.885
					c-0.067-1.064,0.752-1.979,1.824-2.042c1.099-0.072,1.997,0.744,2.063,1.808l6.726,111.879c0.067,1.064-0.749,1.977-1.821,2.041
					C384.827,256.426,384.786,256.426,384.746,256.426L384.746,256.426z M254.749,278.789l-32.216-75.951
					c-0.416-0.982,0.051-2.116,1.037-2.528c0.995-0.409,2.134,0.054,2.55,1.034l35.758,84.297L254.749,278.789L254.749,278.789z"/>
				<path id="Shape_8_" fill="#A81E2C" d="M281.911,356.628c0-2.67,2.096-4.836,4.747-5.022v-44.153
					c0,0-17.027-19.751-28.704-32.276s-28.217-34.198-28.217-34.198l-17.023,95.856c0,0,19.458,24.812,36.967,40.702
					c15.529,14.093,36.973,28.659,36.973,28.659v-44.55C284.01,361.464,281.911,359.294,281.911,356.628L281.911,356.628z"/>
				<path id="Shape_9_" fill="#939598" d="M287.015,359.517c-0.47,0-0.951-0.168-1.321-0.511l-67.051-61.643l-0.021-5.274
					l68.381,62.854l67.511-63.604l0.272,5.058l-66.431,62.585c-0.378,0.359-0.861,0.535-1.345,0.535H287.015L287.015,359.517z"/>
				<path id="Shape_10_" fill="#CE2227" d="M427.256,254.464l-83.68-13.484c0,0,7.785,44.313,7.785,118.489
					c0,74.185-10.217,124.758-10.217,124.758l84.651-9.154c0,0,10.697-40.47,10.697-110.311c-0.004-69.839-9.241-110.3-9.241-110.3
					L427.256,254.464z M388.575,450.028c-2.284,0-4.137-1.829-4.137-4.093c0-2.254,1.851-4.093,4.137-4.093
					c2.285,0,4.132,1.839,4.132,4.093C392.707,448.195,390.86,450.028,388.575,450.028z M221.954,359.468
					c0-74.177,7.783-118.489,7.783-118.489l-83.676,13.484c0,0-9.243,40.463-9.243,110.303c0,69.848,10.701,110.312,10.701,110.312
					l84.65,9.158C232.17,484.228,221.954,433.654,221.954,359.468L221.954,359.468z M183.185,449.76
					c-2.128,0-3.858-1.713-3.858-3.821c0-2.109,1.726-3.818,3.856-3.818c2.127,0,3.854,1.709,3.854,3.815
					c0,2.104-1.725,3.816-3.854,3.816L183.185,449.76z"/>
				<ellipse id="Oval" fill="#A51724" cx="388.575" cy="278.79" rx="3.824" ry="3.785"/>
				<path id="Shape_11_" fill="#939598" d="M388.579,447.864c-0.151,0-0.304-0.022-0.455-0.06c-1.046-0.242-1.691-1.274-1.442-2.32
					c0.057-0.236,5.782-24.857,5.782-81.874c0-57.131-5.737-84.154-5.79-84.414c-0.226-1.045,0.442-2.068,1.489-2.294
					c1.044-0.223,2.092,0.439,2.313,1.481c0.058,0.266,5.88,27.693,5.88,85.227c0,57.563-5.651,81.762-5.888,82.764
					c-0.213,0.898-1.013,1.492-1.893,1.492v-0.002H388.579z"/>
				<ellipse fill="#A51724" cx="183.185" cy="278.79" rx="4.485" ry="4.441"/>
				<path id="Shape_12_" fill="#939598" d="M183.181,447.864c-0.947,0-1.776-0.69-1.923-1.645
					c-0.046-0.321-4.886-32.762-4.886-83.615s4.84-83.768,4.886-84.096c0.159-1.053,1.146-1.778,2.209-1.622
					c1.063,0.153,1.801,1.137,1.643,2.186c-0.051,0.328-4.845,32.983-4.845,83.536c0,50.571,4.799,82.731,4.843,83.04
					c0.165,1.044-0.572,2.038-1.636,2.193C183.373,447.851,183.275,447.864,183.181,447.864z"/>
			</g>
		</g>
	</g>
</g>
<g id="node" display="none">
	<g display="inline">
		<defs>
			<rect id="SVGID_1_" x="-73.218" y="-73.218" width="746.436" height="746.436"/>
		</defs>
		<clipPath id="SVGID_2_">
			<use xlink:href="#SVGID_1_"  overflow="visible"/>
		</clipPath>
		<path clip-path="url(#SVGID_2_)" fill="#699F63" d="M296.21,467.879c-1.817,0-3.624-0.474-5.213-1.395l-16.593-9.818
			c-2.478-1.387-1.268-1.876-0.451-2.162c3.306-1.146,3.975-1.412,7.503-3.412c0.367-0.208,0.854-0.128,1.233,0.095l12.748,7.567
			c0.462,0.256,1.114,0.256,1.54,0l49.7-28.685c0.463-0.265,0.758-0.798,0.758-1.346v-57.356c0-0.561-0.295-1.085-0.771-1.369
			l-49.678-28.661c-0.459-0.268-1.069-0.268-1.532,0l-49.667,28.669c-0.482,0.276-0.789,0.817-0.789,1.361v57.356
			c0,0.548,0.307,1.068,0.784,1.327l13.616,7.867c7.387,3.693,11.91-0.657,11.91-5.027v-56.628c0-0.802,0.644-1.432,1.445-1.432
			h6.301c0.79,0,1.441,0.63,1.441,1.432v56.628c0,9.859-5.369,15.514-14.716,15.514c-2.873,0-5.134,0-11.448-3.111l-13.033-7.503
			c-3.22-1.861-5.213-5.341-5.213-9.066v-57.356c0-3.727,1.993-7.206,5.213-9.059l49.699-28.719c3.145-1.777,7.325-1.777,10.445,0
			l49.697,28.719c3.218,1.861,5.219,5.332,5.219,9.059v57.356c0,3.726-2.001,7.192-5.219,9.066l-49.697,28.694
			C299.854,467.405,298.05,467.879,296.21,467.879"/>
		<path clip-path="url(#SVGID_2_)" fill="#699F63" d="M311.562,428.363c-21.749,0-26.305-9.982-26.305-18.354
			c0-0.798,0.64-1.433,1.436-1.433h6.426c0.718,0,1.316,0.516,1.428,1.218c0.971,6.54,3.863,9.843,17.015,9.843
			c10.469,0,14.927-2.369,14.927-7.924c0-3.202-1.264-5.58-17.534-7.175c-13.599-1.345-22.01-4.349-22.01-15.226
			c0-10.028,8.452-16.01,22.624-16.01c15.922,0,23.801,5.526,24.798,17.383c0.037,0.409-0.107,0.801-0.379,1.104
			c-0.272,0.286-0.652,0.459-1.053,0.459h-6.451c-0.667,0-1.259-0.475-1.394-1.121c-1.547-6.884-5.312-9.085-15.521-9.085
			c-11.432,0-12.76,3.983-12.76,6.968c0,3.616,1.567,4.667,17.003,6.708c15.271,2.02,22.528,4.879,22.528,15.613
			C336.34,422.161,327.31,428.363,311.562,428.363"/>
		<path clip-path="url(#SVGID_2_)" fill="#699F63" d="M383.226,368.213c0,5.271-4.309,9.579-9.577,9.579
			c-5.221,0-9.579-4.258-9.579-9.579c0-5.423,4.461-9.58,9.579-9.58C378.817,358.633,383.226,362.79,383.226,368.213
			 M365.616,368.186c0,4.462,3.599,8.061,8.007,8.061c4.462,0,8.061-3.675,8.061-8.061c0-4.46-3.649-8.006-8.061-8.006
			C369.265,360.18,365.616,363.676,365.616,368.186 M370.049,362.838h3.702c1.267,0,3.751,0,3.751,2.841
			c0,1.977-1.267,2.381-2.029,2.635c1.473,0.102,1.571,1.066,1.773,2.433c0.104,0.861,0.256,2.333,0.557,2.839h-2.277
			c-0.053-0.506-0.408-3.245-0.408-3.396c-0.149-0.609-0.356-0.911-1.115-0.911h-1.873v4.307h-2.08V362.838z M372.079,367.552h1.672
			c1.366,0,1.621-0.96,1.621-1.518c0-1.472-1.016-1.472-1.571-1.472h-1.722V367.552z"/>
		<path clip-path="url(#SVGID_2_)" fill-rule="evenodd" clip-rule="evenodd" fill="#333333" d="M142.306,243.479
			c0-2.29-1.205-4.395-3.182-5.53l-52.692-30.324c-0.89-0.524-1.889-0.797-2.899-0.838h-0.545c-1.008,0.041-2.006,0.313-2.911,0.838
			l-52.692,30.324c-1.964,1.135-3.186,3.24-3.186,5.53l0.116,81.653c0,1.138,0.589,2.192,1.588,2.75
			c0.978,0.585,2.187,0.585,3.161,0L60.38,309.95c1.981-1.176,3.187-3.252,3.187-5.521V266.28c0-2.274,1.205-4.38,3.178-5.51
			l13.333-7.68c0.994-0.573,2.08-0.854,3.19-0.854c1.086,0,2.2,0.281,3.165,0.854l13.331,7.68c1.973,1.13,3.183,3.236,3.183,5.51
			v38.148c0,2.27,1.222,4.358,3.19,5.521l31.306,17.932c0.982,0.585,2.208,0.585,3.181,0c0.97-0.558,1.581-1.612,1.581-2.75
			L142.306,243.479z"/>
		<path clip-path="url(#SVGID_2_)" fill-rule="evenodd" clip-rule="evenodd" fill="#333333" d="M395.843,131.231
			c-0.987-0.548-2.189-0.537-3.164,0.036c-0.971,0.571-1.569,1.616-1.569,2.745v80.863c0,0.795-0.426,1.532-1.112,1.93
			c-0.689,0.398-1.538,0.398-2.228,0l-13.199-7.603c-1.967-1.137-4.39-1.134-6.359,0.001l-52.712,30.421
			c-1.971,1.137-3.183,3.239-3.183,5.512v60.855c0,2.273,1.212,4.374,3.179,5.513l52.712,30.443c1.971,1.137,4.396,1.137,6.368,0
			l52.718-30.443c1.97-1.139,3.184-3.239,3.184-5.513V154.294c0-2.306-1.25-4.434-3.266-5.558L395.843,131.231z M390.953,285.996
			c0,0.567-0.305,1.093-0.797,1.376l-18.099,10.433c-0.491,0.282-1.098,0.282-1.589,0l-18.099-10.433
			c-0.493-0.283-0.796-0.809-0.796-1.376v-20.899c0-0.568,0.303-1.094,0.795-1.379l18.098-10.453c0.493-0.285,1.1-0.285,1.593,0
			l18.098,10.453c0.491,0.285,0.796,0.811,0.796,1.379V285.996z"/>
		<path clip-path="url(#SVGID_2_)" fill-rule="evenodd" clip-rule="evenodd" fill="#333333" d="M571.367,264.55
			c1.961-1.138,3.168-3.236,3.168-5.504V244.3c0-2.269-1.207-4.367-3.169-5.505l-52.374-30.409c-1.97-1.146-4.402-1.147-6.378-0.009
			l-52.694,30.421c-1.97,1.137-3.182,3.237-3.182,5.511v60.837c0,2.291,1.227,4.401,3.214,5.532l52.366,29.839
			c1.931,1.102,4.299,1.115,6.241,0.035l31.674-17.604c1.006-0.562,1.632-1.614,1.637-2.763c0.008-1.147-0.604-2.21-1.597-2.78
			l-53.027-30.437c-0.99-0.568-1.602-1.622-1.602-2.761v-19.066c0-1.137,0.608-2.189,1.595-2.756l16.503-9.515
			c0.982-0.568,2.195-0.568,3.179,0l16.511,9.515c0.986,0.567,1.593,1.62,1.593,2.756v15.001c0,1.14,0.609,2.191,1.597,2.759
			c0.986,0.57,2.2,0.564,3.186-0.006L571.367,264.55z"/>
		<path clip-path="url(#SVGID_2_)" fill-rule="evenodd" clip-rule="evenodd" fill="#699F63" d="M515.025,261.701
			c0.379-0.218,0.845-0.218,1.222,0l10.114,5.835c0.378,0.219,0.611,0.622,0.611,1.059v11.679c0,0.438-0.233,0.84-0.611,1.059
			l-10.114,5.836c-0.377,0.219-0.843,0.219-1.222,0l-10.106-5.836c-0.378-0.219-0.61-0.62-0.61-1.059v-11.679
			c0-0.437,0.232-0.84,0.61-1.059L515.025,261.701z"/>
	</g>
	<g display="inline">
		<defs>
			<path id="SVGID_3_" d="M224.152,208.694l-52.417,30.25c-1.96,1.131-3.166,3.219-3.166,5.483v60.544
				c0,2.26,1.205,4.351,3.165,5.483l52.416,30.273c1.961,1.13,4.374,1.13,6.334,0l52.404-30.273
				c1.958-1.133,3.164-3.224,3.164-5.483v-60.546c0-2.261-1.206-4.35-3.166-5.48l-52.404-30.25
				c-0.979-0.565-2.072-0.848-3.165-0.848C226.223,207.846,225.131,208.129,224.152,208.694"/>
		</defs>
		<clipPath id="SVGID_4_">
			<use xlink:href="#SVGID_3_"  overflow="visible"/>
		</clipPath>
		
			<linearGradient id="SVGID_5_" gradientUnits="userSpaceOnUse" x1="-0.0889" y1="599.8271" x2="1.1554" y2="599.8271" gradientTransform="matrix(-38.0649 77.6524 77.6524 38.0649 -46332.7109 -22594.1992)">
			<stop  offset="0" style="stop-color:#41873F"/>
			<stop  offset="0.3288" style="stop-color:#418B3D"/>
			<stop  offset="0.6352" style="stop-color:#419637"/>
			<stop  offset="0.9319" style="stop-color:#3FA92D"/>
			<stop  offset="1" style="stop-color:#3FAE2A"/>
		</linearGradient>
		<polygon clip-path="url(#SVGID_4_)" fill="url(#SVGID_5_)" points="339.018,233.81 263.291,388.29 115.604,315.895 
			191.33,161.414 		"/>
	</g>
	<g display="inline">
		<defs>
			<path id="SVGID_6_" d="M169.871,308.814c0.499,0.655,1.128,1.213,1.863,1.64l44.964,25.968l7.486,4.306
				c1.119,0.645,2.397,0.919,3.652,0.826c0.419-0.034,0.837-0.11,1.245-0.229l55.273-101.213c-0.422-0.454-0.915-0.848-1.468-1.167
				l-34.322-19.811l-18.136-10.438c-0.519-0.298-1.075-0.514-1.646-0.653L169.871,308.814z"/>
		</defs>
		<clipPath id="SVGID_7_">
			<use xlink:href="#SVGID_6_"  overflow="visible"/>
		</clipPath>
		
			<linearGradient id="SVGID_8_" gradientUnits="userSpaceOnUse" x1="-0.0801" y1="600.0996" x2="1.164" y2="600.0996" gradientTransform="matrix(106.8073 -78.9149 -78.9149 -106.8073 47584.0938 64369.6445)">
			<stop  offset="0" style="stop-color:#41873F"/>
			<stop  offset="0.1376" style="stop-color:#41873F"/>
			<stop  offset="0.4032" style="stop-color:#54A044"/>
			<stop  offset="0.7136" style="stop-color:#66B848"/>
			<stop  offset="0.9081" style="stop-color:#6CC04A"/>
			<stop  offset="1" style="stop-color:#6CC04A"/>
		</linearGradient>
		<polygon clip-path="url(#SVGID_7_)" fill="url(#SVGID_8_)" points="106.016,255.221 243.927,153.324 348.211,294.466 
			210.299,396.362 		"/>
	</g>
	<g display="inline">
		<defs>
			<path id="SVGID_9_" d="M224.152,208.694l-52.417,30.25c-1.959,1.131-3.166,3.219-3.166,5.483v60.544
				c0,2.26,1.206,4.351,3.165,5.483l52.416,30.273c1.961,1.13,4.374,1.13,6.334,0l52.404-30.273
				c1.958-1.133,3.164-3.224,3.164-5.483v-60.546c0-2.261-1.206-4.35-3.166-5.48l-52.404-30.25
				c-0.979-0.565-2.072-0.848-3.165-0.848C226.223,207.846,225.131,208.129,224.152,208.694"/>
		</defs>
		<clipPath id="SVGID_10_">
			<use xlink:href="#SVGID_9_"  overflow="visible"/>
		</clipPath>
		<g clip-path="url(#SVGID_10_)">
			<defs>
				<polygon id="SVGID_11_" points="222.404,197.575 221.683,197.987 222.646,197.987 				"/>
			</defs>
			<clipPath id="SVGID_12_">
				<use xlink:href="#SVGID_11_"  overflow="visible"/>
			</clipPath>
			
				<linearGradient id="SVGID_13_" gradientUnits="userSpaceOnUse" x1="-0.2715" y1="600.2061" x2="0.9785" y2="600.2061" gradientTransform="matrix(97.417 0 0 -97.417 192.8398 58668.0352)">
				<stop  offset="0" style="stop-color:#6CC04A"/>
				<stop  offset="0.0919" style="stop-color:#6CC04A"/>
				<stop  offset="0.2864" style="stop-color:#66B848"/>
				<stop  offset="0.5968" style="stop-color:#54A044"/>
				<stop  offset="0.8624" style="stop-color:#41873F"/>
				<stop  offset="1" style="stop-color:#41873F"/>
			</linearGradient>
			<rect x="221.683" y="197.575" clip-path="url(#SVGID_12_)" fill="url(#SVGID_13_)" width="0.963" height="0.412"/>
		</g>
	</g>
	<g display="inline">
		<defs>
			<path id="SVGID_14_" d="M226.681,207.88c-0.877,0.087-1.739,0.36-2.529,0.814l-52.268,30.163l56.348,102.65
				c0.781-0.112,1.546-0.374,2.251-0.78l52.404-30.273c1.619-0.937,2.724-2.527,3.059-4.325l-57.449-98.144
				c-0.424-0.085-0.855-0.127-1.287-0.127C227.033,207.857,226.857,207.865,226.681,207.88"/>
		</defs>
		<clipPath id="SVGID_15_">
			<use xlink:href="#SVGID_14_"  overflow="visible"/>
		</clipPath>
		
			<linearGradient id="SVGID_16_" gradientUnits="userSpaceOnUse" x1="-0.269" y1="600.0508" x2="0.9754" y2="600.0508" gradientTransform="matrix(97.417 0 0 -97.417 192.8398 58729.8477)">
			<stop  offset="0" style="stop-color:#6CC04A"/>
			<stop  offset="0.0919" style="stop-color:#6CC04A"/>
			<stop  offset="0.2864" style="stop-color:#66B848"/>
			<stop  offset="0.5968" style="stop-color:#54A044"/>
			<stop  offset="0.8624" style="stop-color:#41873F"/>
			<stop  offset="1" style="stop-color:#41873F"/>
		</linearGradient>
		<rect x="171.884" y="207.857" clip-path="url(#SVGID_15_)" fill="url(#SVGID_16_)" width="114.062" height="133.65"/>
	</g>
	<g display="inline">
		<defs>
			<path id="SVGID_17_" d="M224.152,208.694l-52.417,30.25c-1.959,1.131-3.166,3.219-3.166,5.483v60.544
				c0,2.26,1.206,4.351,3.165,5.483l52.416,30.273c1.961,1.13,4.374,1.13,6.334,0l52.404-30.273
				c1.958-1.133,3.164-3.224,3.164-5.483v-60.546c0-2.261-1.206-4.35-3.166-5.48l-52.404-30.25
				c-0.979-0.565-2.072-0.848-3.165-0.848C226.223,207.846,225.131,208.129,224.152,208.694"/>
		</defs>
		<clipPath id="SVGID_18_">
			<use xlink:href="#SVGID_17_"  overflow="visible"/>
		</clipPath>
		<g clip-path="url(#SVGID_18_)">
			<defs>
				<polygon id="SVGID_19_" points="287.906,309.48 287.56,308.886 287.56,309.681 				"/>
			</defs>
			<clipPath id="SVGID_20_">
				<use xlink:href="#SVGID_19_"  overflow="visible"/>
			</clipPath>
			
				<linearGradient id="SVGID_21_" gradientUnits="userSpaceOnUse" x1="-0.1914" y1="599.9814" x2="0.9753" y2="599.9814" gradientTransform="matrix(97.417 0 0 -97.417 192.8398 58757.6602)">
				<stop  offset="0" style="stop-color:#6CC04A"/>
				<stop  offset="0.0919" style="stop-color:#6CC04A"/>
				<stop  offset="0.2864" style="stop-color:#66B848"/>
				<stop  offset="0.5968" style="stop-color:#54A044"/>
				<stop  offset="0.8624" style="stop-color:#41873F"/>
				<stop  offset="1" style="stop-color:#41873F"/>
			</linearGradient>
			<rect x="287.56" y="308.886" clip-path="url(#SVGID_20_)" fill="url(#SVGID_21_)" width="0.347" height="0.795"/>
		</g>
	</g>
	<g display="inline">
		<defs>
			<path id="SVGID_22_" d="M224.152,208.694l-52.417,30.25c-1.959,1.131-3.166,3.219-3.166,5.483v60.544
				c0,2.26,1.206,4.351,3.165,5.483l52.416,30.273c1.961,1.13,4.374,1.13,6.334,0l52.404-30.273
				c1.958-1.133,3.164-3.224,3.164-5.483v-60.546c0-2.261-1.206-4.35-3.166-5.48l-52.404-30.25
				c-0.979-0.565-2.072-0.848-3.165-0.848C226.223,207.846,225.131,208.129,224.152,208.694"/>
		</defs>
		<clipPath id="SVGID_23_">
			<use xlink:href="#SVGID_22_"  overflow="visible"/>
		</clipPath>
		<g clip-path="url(#SVGID_23_)">
			<defs>
				<path id="SVGID_24_" d="M283.02,310.454l-52.47,30.271c-0.722,0.417-1.509,0.678-2.315,0.788l1.045,1.902l58.28-33.735v-0.795
					l-1.441-2.462C285.688,308.102,284.547,309.569,283.02,310.454"/>
			</defs>
			<clipPath id="SVGID_25_">
				<use xlink:href="#SVGID_24_"  overflow="visible"/>
			</clipPath>
			
				<linearGradient id="SVGID_26_" gradientUnits="userSpaceOnUse" x1="-0.269" y1="599.9492" x2="0.9755" y2="599.9492" gradientTransform="matrix(97.417 0 0 -97.417 192.8398 58770.2227)">
				<stop  offset="0" style="stop-color:#6CC04A"/>
				<stop  offset="0.0919" style="stop-color:#6CC04A"/>
				<stop  offset="0.2864" style="stop-color:#66B848"/>
				<stop  offset="0.5968" style="stop-color:#54A044"/>
				<stop  offset="0.8624" style="stop-color:#41873F"/>
				<stop  offset="1" style="stop-color:#41873F"/>
			</linearGradient>
			<rect x="228.234" y="306.424" clip-path="url(#SVGID_25_)" fill="url(#SVGID_26_)" width="59.326" height="36.992"/>
		</g>
	</g>
	<g display="inline">
		<defs>
			<path id="SVGID_27_" d="M224.152,208.694l-52.417,30.25c-1.959,1.131-3.166,3.219-3.166,5.483v60.544
				c0,2.26,1.206,4.351,3.165,5.483l52.416,30.273c1.961,1.13,4.374,1.13,6.334,0l52.404-30.273
				c1.958-1.133,3.164-3.224,3.164-5.483v-60.546c0-2.261-1.206-4.35-3.166-5.48l-52.404-30.25
				c-0.979-0.565-2.072-0.848-3.165-0.848C226.223,207.846,225.131,208.129,224.152,208.694"/>
		</defs>
		<clipPath id="SVGID_28_">
			<use xlink:href="#SVGID_27_"  overflow="visible"/>
		</clipPath>
		<g clip-path="url(#SVGID_28_)">
			<defs>
				<path id="SVGID_29_" d="M283.02,310.454l-52.47,30.271c-0.722,0.417-1.509,0.678-2.315,0.788l1.045,1.902l58.28-33.735v-0.795
					l-1.441-2.462C285.688,308.102,284.547,309.569,283.02,310.454"/>
			</defs>
			<clipPath id="SVGID_30_">
				<use xlink:href="#SVGID_29_"  overflow="visible"/>
			</clipPath>
			
				<linearGradient id="SVGID_31_" gradientUnits="userSpaceOnUse" x1="-0.0952" y1="599.959" x2="1.1478" y2="599.959" gradientTransform="matrix(-60.0806 122.5644 122.5644 60.0806 -73234.2109 -35805.9492)">
				<stop  offset="0" style="stop-color:#41873F"/>
				<stop  offset="0.3288" style="stop-color:#418B3D"/>
				<stop  offset="0.6352" style="stop-color:#419637"/>
				<stop  offset="0.9319" style="stop-color:#3FA92D"/>
				<stop  offset="1" style="stop-color:#3FAE2A"/>
			</linearGradient>
			<polygon clip-path="url(#SVGID_30_)" fill="url(#SVGID_31_)" points="302.18,313.591 276.066,366.863 213.614,336.251 
				239.728,282.978 			"/>
		</g>
	</g>
</g>
</svg>
